<?xml version="1.0" standalone="no"?>
<!DOCTYPE svg PUBLIC "-//W3C//DTD SVG 1.1//EN" "http://www.w3.org/Graphics/SVG/1.1/DTD/svg11.dtd" >
<svg xmlns="http://www.w3.org/2000/svg">
<metadata></metadata>
<defs>
<font id="electrolizeregular" horiz-adv-x="417" >
<font-face units-per-em="2048" ascent="1638" descent="-410" />
<missing-glyph horiz-adv-x="512" />
<glyph horiz-adv-x="0" />
<glyph horiz-adv-x="0" />
<glyph unicode="&#xd;" horiz-adv-x="0" />
<glyph unicode=" "  horiz-adv-x="512" />
<glyph unicode="&#x09;" horiz-adv-x="512" />
<glyph unicode="&#xa0;" horiz-adv-x="512" />
<glyph unicode="!" horiz-adv-x="581" d="M205 74q0 -32 2 -40t14 -20q12 -10 21 -12t45 -2h10q34 0 42.5 2t18.5 12q14 12 16.5 20.5t2.5 39.5v47q0 30 -2.5 38.5t-14.5 20.5q-12 11 -21 13t-44 2h-8q-35 0 -44 -2t-20 -13q-13 -12 -15.5 -20t-2.5 -39v-47zM205 922v512h172v-512l-23 -533h-127z" />
<glyph unicode="&#x22;" horiz-adv-x="735" d="M131 1354v28q0 23 14 37q11 10 20 12.5t34 2.5h37q18 0 36 -15q17 -17 17 -43v-22l-47 -471h-70zM446 1354v28q0 22 15 37q11 10 19.5 12.5t33.5 2.5h37q19 0 37 -15q16 -16 16 -43v-22l-47 -471h-70z" />
<glyph unicode="#" horiz-adv-x="1271" d="M113 483l18 123h256l31 205h-260l18 123h260l56 377h122l-55 -377h211l55 377h123l-55 -377h266l-18 -123h-267l-30 -205h270l-18 -123h-271l-57 -401h-123l57 401h-210l-58 -401h-123l58 401h-256zM510 606h211l31 205h-211z" />
<glyph unicode="$" horiz-adv-x="1286" d="M154 225v82h172v-39q0 -32 3 -40t21 -23q19 -15 29.5 -18t46.5 -3h147v471h-202q-23 0 -43 7t-29.5 13.5t-26.5 20.5l-55 47q-15 11 -22.5 19t-14 24.5t-6.5 38.5v383q0 41 12.5 62.5t36.5 40.5l49 41q17 14 26.5 20.5t29.5 13.5t43 7h202v204h148v-204h194q23 0 43 -7 t29.5 -13.5t26.5 -20.5l49 -41q16 -13 24.5 -22.5t16.5 -30.5t8 -50v-82h-172v39q0 31 -3.5 40t-21.5 24q-19 15 -28.5 17.5t-46.5 2.5h-119v-450h215q23 0 43 -7t28.5 -13.5t26.5 -20.5l49 -41q16 -13 25 -22.5t17 -30.5t8 -50v-389q0 -28 -8 -49.5t-17 -30.5t-25 -22 l-49 -41q-18 -14 -26.5 -20.5t-28.5 -13.5t-43 -7h-215v-225h-148v225h-223q-23 0 -43 7t-28.5 13.5t-26.5 20.5l-49 41q-16 13 -24.5 22.5t-16.5 30t-8 49.5zM346 883q0 -31 3.5 -40t21.5 -24q19 -15 28.5 -17.5t46.5 -2.5h127v450h-127q-37 0 -46.5 -2.5t-28.5 -17.5 q-18 -15 -21.5 -24t-3.5 -40v-282zM721 184h139q36 0 46.5 3t29.5 18q18 15 21.5 23.5t3.5 39.5v303q0 31 -3.5 40t-21.5 24q-19 15 -29 17.5t-47 2.5h-139v-471z" />
<glyph unicode="%" horiz-adv-x="1918" d="M154 803q0 -31 24 -51l27 -23q24 -20 49 -20h418q27 0 51 20l25 23q24 20 24 51v536q0 32 -24 52l-25 22q-25 21 -51 21h-418q-24 0 -49 -21l-27 -22q-24 -20 -24 -52v-536zM289 870v402q0 18 1.5 23t10.5 12q14 10 41 10h244q19 0 24.5 -1.5t14.5 -8.5t10.5 -12t1.5 -23 v-402q0 -18 -1.5 -22.5t-10.5 -11.5q-13 -11 -39 -11h-244q-26 0 -41 11q-9 7 -10.5 11.5t-1.5 22.5zM369 -94l999 1560h150l-1008 -1560h-141zM1147 94q0 -31 24 -51l27 -23q24 -20 49 -20h418q27 0 51 20l25 23q24 20 24 51v537q0 31 -24 51l-25 23q-24 20 -51 20h-418 q-25 0 -49 -20l-27 -23q-24 -20 -24 -51v-537zM1282 162v401q0 18 1.5 23t10.5 12q14 10 41 10h244q19 0 24.5 -1.5t14.5 -8.5t10.5 -12t1.5 -23v-401q0 -18 -1.5 -23t-10.5 -12t-14.5 -8.5t-24.5 -1.5h-244q-27 0 -41 10q-9 7 -10.5 12t-1.5 23z" />
<glyph unicode="&#x26;" horiz-adv-x="1413" d="M174 184v439q0 48 5.5 60.5t35.5 37.5l84 70q34 28 55 28h82v8q-26 2 -55 31l-59 49q-27 21 -32 31.5t-5 44.5v266q0 41 12.5 62.5t36.5 40.5l49 41q18 14 26.5 20.5t28.5 13.5t43 7h463q23 0 43 -7t28.5 -13.5t26.5 -20.5l50 -41q16 -13 24.5 -22.5t16.5 -30.5t8 -50 v-82h-172v39q0 32 -3.5 40.5t-21.5 23.5q-19 15 -29 17.5t-49 2.5h-309q-37 0 -47 -2.5t-29 -17.5q-18 -14 -21 -23t-3 -41v-192q0 -39 5.5 -50.5t35.5 -35.5q39 -33 57.5 -40t67.5 -7h718v-144h-147v-553q0 -41 -7.5 -57.5t-31.5 -42.5l-37 -37q-16 -16 -25.5 -24 t-28.5 -15.5t-42 -7.5h-676q-33 0 -52.5 11.5t-43.5 35.5l-37 37q-24 26 -31.5 42.5t-7.5 57.5zM346 227q0 -31 3.5 -39.5t21.5 -23.5q19 -15 29 -18t46 -3h476q36 0 46 3t29 18q18 15 21.5 23.5t3.5 39.5v510h-514q-39 0 -51.5 -4.5t-42.5 -30.5l-31 -26q-21 -20 -29 -34 t-8 -44v-371z" />
<glyph unicode="'" horiz-adv-x="415" d="M127 1354v28q0 23 14 37q11 10 20 12.5t34 2.5h36q19 0 37 -15q17 -17 17 -43v-22l-47 -471h-70z" />
<glyph unicode="(" horiz-adv-x="448" d="M119 -74v1377q0 46 5.5 58t35.5 34l45 30q30 21 42.5 25t51.5 4h37v-80q0 -46 -5 -58t-32 -32q-24 -17 -28.5 -28.5t-4.5 -57.5v-1167q0 -46 4.5 -57.5t28.5 -28.5q27 -20 32 -32t5 -58v-80h-37q-40 0 -52 3.5t-42 24.5l-45 31q-30 22 -35.5 34t-5.5 58z" />
<glyph unicode=")" horiz-adv-x="448" d="M113 -145q0 46 5 58t32 32q24 17 28 28t4 58v1167q0 47 -4 58t-28 28q-27 20 -32 32t-5 58v80h37q39 0 51.5 -4t42.5 -25l45 -30q30 -22 35.5 -34t5.5 -58v-1377q0 -46 -5.5 -58t-35.5 -34l-45 -31q-30 -21 -42 -24.5t-52 -3.5h-37v80z" />
<glyph unicode="*" horiz-adv-x="1095" d="M154 1133l43 114l282 -102v305h123v-309l299 108l41 -116l-293 -107l180 -258l-102 -70l-184 265l-185 -267l-100 70l180 262z" />
<glyph unicode="+" horiz-adv-x="1101" d="M123 602v133h360v361h133v-361h363v-133h-363v-362h-133v362h-360z" />
<glyph unicode="," d="M123 80v35q0 36 2 44.5t14 20.5q12 11 22 13t46 2q39 0 49.5 -2t22.5 -13q12 -12 14 -20.5t2 -44.5v-35q0 -49 -12 -100l-50 -226l-61 41v205q-11 0 -16.5 2.5t-16.5 13.5q-12 10 -14 19t-2 45z" />
<glyph unicode="-" horiz-adv-x="1028" d="M123 602v133h782v-133h-782z" />
<glyph unicode="." d="M123 74v47q0 31 2.5 39t15.5 20q11 11 20 13t44 2h8q35 0 44.5 -2t21.5 -13q12 -12 14 -20t2 -39v-47q0 -31 -2.5 -39.5t-16.5 -20.5q-10 -10 -18.5 -12t-42.5 -2h-10q-36 0 -45 2t-21 12q-12 12 -14 20t-2 40z" />
<glyph unicode="/" horiz-adv-x="1075" d="M-82 -184l1075 1618h164l-1083 -1618h-156z" />
<glyph unicode="0" horiz-adv-x="1597" d="M197 184v1065q0 41 12.5 62.5t36.5 40.5l49 41q18 14 26.5 20.5t28.5 13.5t43 7h811q23 0 43 -7t29.5 -13.5t26.5 -20.5l49 -41q16 -13 24.5 -22.5t16.5 -30.5t8 -50v-1065q0 -29 -8 -49.5t-16.5 -30t-24.5 -22.5l-49 -41q-17 -14 -26.5 -20.5t-29.5 -13.5t-43 -7h-811 q-23 0 -43 7t-28.5 13.5t-26.5 20.5l-49 41q-16 13 -24.5 22.5t-16.5 30t-8 49.5zM369 227q0 -32 3 -40t21 -23q19 -15 29.5 -18t46.5 -3h659q36 0 46.5 3t29.5 18q18 15 21.5 23.5t3.5 39.5v979q0 32 -3.5 40.5t-21.5 23.5q-19 15 -29 17.5t-47 2.5h-659q-37 0 -47 -2.5 t-29 -17.5q-18 -14 -21 -23t-3 -41v-979z" />
<glyph unicode="1" horiz-adv-x="784" d="M102 1120l289 314h240v-1434h-160v1266q0 41 6 53l-6 6l-272 -305z" />
<glyph unicode="2" horiz-adv-x="1236" d="M154 0v217q0 36 5.5 47.5t33.5 36.5l679 621q26 23 32.5 42.5t6.5 59.5v182q0 32 -3 41t-21 23q-19 15 -29 17.5t-47 2.5h-365q-37 0 -46.5 -2.5t-28.5 -17.5q-18 -15 -21.5 -23.5t-3.5 -40.5v-39h-172v82q0 41 12.5 62.5t36.5 40.5l49 41q17 14 26.5 20.5t29.5 13.5 t43 7h516q23 0 43 -7t28.5 -13.5t26.5 -20.5l49 -41q16 -13 24.5 -22.5t16.5 -30.5t8 -50v-288q0 -40 -6.5 -60t-32.5 -43l-677 -612q-29 -26 -35 -40.5t-6 -53.5v-9h757v-143h-929z" />
<glyph unicode="3" horiz-adv-x="1277" d="M154 184v82h172v-39q0 -32 3 -40t21 -23q19 -15 29.5 -18t46.5 -3h405q36 0 46.5 3t29.5 18q18 15 21.5 23.5t3.5 39.5v310q0 30 -7.5 43.5t-29.5 33.5l-31 27q-30 26 -42.5 30.5t-51.5 4.5h-328v131h299q39 0 52 4.5t43 30.5l30 24q30 24 35.5 35.5t5.5 50.5v254 q0 32 -3 41t-21 23q-19 15 -29 17.5t-47 2.5h-338q-39 0 -49 -2.5t-29 -17.5q-18 -14 -21 -23t-3 -41v-39h-172v82q0 41 12.5 62.5t36.5 40.5l49 41q18 14 26.5 20.5t28.5 13.5t43 7h492q23 0 43 -7t28.5 -13.5t26.5 -20.5l49 -41q16 -13 24.5 -22.5t16.5 -30.5t8 -50v-336 q0 -34 -4.5 -43.5t-32.5 -31.5l-59 -50q-31 -26 -57 -26v-10q25 0 57 -27l80 -66q30 -25 35.5 -37.5t5.5 -60.5v-377q0 -41 -7.5 -57.5t-31.5 -42.5l-37 -37q-16 -16 -25.5 -24t-28.5 -15.5t-42 -7.5h-582q-23 0 -43 7t-28.5 13.5t-26.5 20.5l-49 41q-16 13 -24.5 22.5 t-16.5 30t-8 49.5z" />
<glyph unicode="4" horiz-adv-x="1339" d="M113 328v168l700 938h193l-682 -916q-19 -31 -35 -39v-8h549v410h172v-410h196v-143h-196v-328h-172v328h-725z" />
<glyph unicode="5" horiz-adv-x="1335" d="M154 184v82h172v-39q0 -32 3 -40t21 -23q19 -15 29.5 -18t46.5 -3h463q36 0 46.5 3t29.5 18q18 15 21 23t3 40v488q0 32 -3 40t-21 23q-19 15 -29.5 18t-46.5 3h-395q-23 0 -43 -7t-29.5 -13.5t-26.5 -20.5q-24 -19 -36.5 -36.5t-12.5 -45.5h-172v758h963v-144h-791v-448 h8q2 22 45 55q3 2 11 8t11.5 8.5l10.5 7.5t11.5 7t12 5.5t14 5t15 2.5t17.5 1h463q23 0 43 -7t28.5 -13.5t26.5 -20.5l49 -41q16 -13 24.5 -22.5t16.5 -30t8 -49.5v-574q0 -29 -8 -49.5t-16.5 -30t-24.5 -22.5l-49 -41q-18 -14 -26.5 -20.5t-28.5 -13.5t-43 -7h-615 q-23 0 -43 7t-28.5 13.5t-26.5 20.5l-49 41q-16 13 -24.5 22.5t-16.5 30t-8 49.5z" />
<glyph unicode="6" horiz-adv-x="1404" d="M174 184v1065q0 41 12.5 62.5t36.5 40.5l49 41q17 14 26.5 20.5t29.5 13.5t43 7h643q23 0 43 -7t28.5 -13.5t26.5 -20.5l49 -41q16 -13 24.5 -22.5t16.5 -30.5t8 -50v-82h-172v39q0 32 -3 41t-21 23q-19 15 -29 17.5t-47 2.5h-492q-37 0 -46.5 -2.5t-28.5 -17.5 q-18 -15 -21.5 -23.5t-3.5 -40.5v-407h8l11 10q72 72 112 72h557q23 0 43 -7t29.5 -13.5t26.5 -20.5l49 -41q16 -13 24.5 -22.5t16.5 -30.5t8 -50v-512q0 -29 -8 -49.5t-16.5 -30t-24.5 -22.5l-49 -41q-17 -14 -26.5 -20.5t-29.5 -13.5t-43 -7h-663q-23 0 -43 7t-29.5 13.5 t-26.5 20.5l-49 41q-16 13 -24.5 22.5t-16.5 30t-8 49.5zM346 227q0 -31 3.5 -39.5t21.5 -23.5q19 -15 29 -18t46 -3h512q36 0 46.5 3t29.5 18q18 15 21.5 23.5t3.5 39.5v426q0 31 -3.5 40t-21.5 24q-19 15 -29 17.5t-47 2.5h-460q-40 0 -54 -4t-49 -26q-30 -19 -39 -28 t-10 -24v-428z" />
<glyph unicode="7" horiz-adv-x="1234" d="M51 1290v144h1051v-156l-684 -1278h-189l674 1249q17 32 35 41h-887z" />
<glyph unicode="8" horiz-adv-x="1417" d="M174 184v369q0 38 5.5 52t23.5 28l96 80q31 26 57 26v11q-26 0 -57 26l-68 53q-19 15 -25.5 27.5t-6.5 42.5v350q0 41 12.5 62.5t36.5 40.5l49 41q18 14 26.5 20.5t28.5 13.5t43 7h627q23 0 43 -7t28.5 -13.5t26.5 -20.5l49 -41q16 -13 25 -22.5t17 -30.5t8 -50v-350 q0 -30 -7 -42.5t-26 -27.5l-68 -53q-31 -26 -57 -26v-11q26 0 57 -26l96 -80q18 -14 23.5 -28t5.5 -52v-369q0 -29 -8 -49.5t-16.5 -30t-24.5 -22.5q-15 -11 -49 -41q-18 -14 -26.5 -20.5t-28.5 -13.5t-43 -7h-676q-23 0 -43 7t-29.5 13.5t-26.5 20.5q-34 30 -49 41 q-16 13 -24.5 22.5t-16.5 30t-8 49.5zM346 227q0 -31 3.5 -39.5t21.5 -23.5q19 -15 29 -18t46 -3h525q36 0 46.5 3t29.5 18q18 15 21 23t3 40v291q0 33 -4.5 43t-30.5 31l-45 37q-24 20 -34 23t-42 3h-413q-32 0 -42 -3t-34 -23l-45 -37q-26 -21 -30.5 -31t-4.5 -43v-291z M371 940q0 -36 4 -46t28 -30l54 -43q21 -17 31.5 -19.5t48.5 -2.5h344q38 0 48.5 2.5t31.5 19.5l53 43q24 20 28.5 30t4.5 46v266q0 32 -3.5 40.5t-21.5 23.5q-19 15 -29 17.5t-47 2.5h-475q-37 0 -47 -2.5t-29 -17.5q-18 -14 -21 -23t-3 -41v-266z" />
<glyph unicode="9" horiz-adv-x="1404" d="M174 737v512q0 41 12.5 62.5t36.5 40.5l49 41q17 14 26.5 20.5t29.5 13.5t43 7h663q23 0 43 -7t29.5 -13.5t26.5 -20.5l49 -41q16 -13 24.5 -22.5t16.5 -30.5t8 -50v-1065q0 -29 -8 -49.5t-16.5 -30t-24.5 -22.5l-49 -41q-17 -14 -26.5 -20.5t-29.5 -13.5t-43 -7h-643 q-23 0 -43 7t-28.5 13.5t-26.5 20.5l-49 41q-16 13 -24.5 22.5t-16.5 30t-8 49.5v82h172v-39q0 -32 3 -40t21 -23q19 -15 29.5 -18t46.5 -3h491q36 0 46.5 3t29.5 18q18 15 21.5 23.5t3.5 39.5v408h-8l-11 -10q-72 -72 -112 -72h-557q-23 0 -43 7t-29.5 13.5t-26.5 20.5 l-49 41q-16 13 -24.5 22.5t-16.5 30t-8 49.5zM346 780q0 -31 3.5 -39.5t21.5 -23.5q19 -15 29 -18t46 -3h461q39 0 53 4t50 27q31 20 39.5 28.5t9.5 22.5v428q0 32 -3.5 40.5t-21.5 23.5q-19 15 -29 17.5t-47 2.5h-512q-37 0 -46.5 -2.5t-28.5 -17.5q-18 -15 -21.5 -23.5 t-3.5 -40.5v-426z" />
<glyph unicode=":" d="M123 51v90q0 17 2.5 22.5t13.5 16.5q10 10 22 12.5t48 2.5t48 -2.5t24 -12.5q14 -14 14 -37v-82q0 -24 -2 -30.5t-14 -16.5q-10 -10 -21.5 -12t-48.5 -2t-49 2t-23 12q-14 14 -14 37zM123 850v90q0 17 2.5 22.5t13.5 16.5q10 10 21.5 12t48.5 2t49 -2t23 -12 q14 -14 14 -37v-82q0 -24 -2 -30.5t-14 -16.5q-10 -10 -21.5 -12t-48.5 -2t-49 2t-23 12q-14 14 -14 37z" />
<glyph unicode=";" d="M123 80v35q0 36 2 44.5t14 20.5q12 11 22 13t46 2q39 0 49.5 -2t22.5 -13q12 -12 14 -20.5t2 -44.5v-35q0 -49 -12 -100l-50 -226l-61 41v205q-11 0 -16.5 2.5t-16.5 13.5q-12 10 -14 19t-2 45zM123 850v90q0 17 2.5 22.5t13.5 16.5q10 10 21.5 12t48.5 2t49 -2t23 -12 q14 -14 14 -37v-82q0 -24 -2 -30.5t-14 -16.5q-10 -10 -21.5 -12t-48.5 -2t-49 2t-23 12q-14 14 -14 37z" />
<glyph unicode="&#x3c;" horiz-adv-x="1056" d="M113 649v152l831 444v-172l-598 -305q-70 -31 -92 -31v-8q9 0 22.5 -3.5t22 -7t25.5 -11t22 -9.5l598 -313v-170z" />
<glyph unicode="=" horiz-adv-x="1064" d="M123 502v133h819v-133h-819zM123 821v133h819v-133h-819z" />
<glyph unicode="&#x3e;" horiz-adv-x="1056" d="M113 215v170l598 313q5 2 22 9.5t25.5 11t22 7t22.5 3.5v8q-22 0 -92 31l-598 305v172l831 -444v-152z" />
<glyph unicode="?" horiz-adv-x="1089" d="M72 1167v82q0 41 12.5 62.5t36.5 40.5l49 41q18 14 26.5 20.5t28.5 13.5t43 7h492q23 0 43 -7t28.5 -13.5t26.5 -20.5l49 -41q16 -13 24.5 -22.5t16.5 -30.5t8 -50v-424q0 -22 -7 -38.5t-14.5 -24.5t-23.5 -21l-53 -45q-18 -14 -26.5 -20.5t-28.5 -13.5t-43 -7h-133 q-37 0 -47 -2.5t-29 -17.5q-18 -15 -21.5 -24t-3.5 -40v-161h-172v204q0 41 12.5 62.5t36.5 40.5l50 41q18 14 26.5 20.5t28.5 13.5t43 7h133q37 0 47 2.5t29 17.5q18 14 21 23t3 41v323q0 32 -3 41t-21 23q-19 15 -29 17.5t-47 2.5h-340q-37 0 -47 -2.5t-29 -17.5 q-18 -14 -21 -23t-3 -41v-39h-172zM354 74q0 -31 2.5 -39.5t14.5 -20.5q12 -10 20.5 -12t44.5 -2h10q35 0 43.5 2t18.5 12q13 12 15.5 20t2.5 40v47q0 31 -2 39t-14 20q-12 11 -21.5 13t-44.5 2h-8q-35 0 -43.5 -2t-19.5 -13q-14 -12 -16.5 -20.5t-2.5 -38.5v-47z" />
<glyph unicode="@" horiz-adv-x="1437" d="M123 102v861q0 29 8 49.5t16.5 30t24.5 22.5l49 41q18 14 26.5 20.5t28.5 13.5t43 7h799q23 0 43 -7t29.5 -13.5t26.5 -20.5l49 -41q16 -13 24.5 -22.5t16.5 -30t8 -49.5v-717l-98 -82h-189q-27 0 -35 2.5t-28 19.5q-22 18 -25 37h-8q0 -18 -31 -37q-27 -17 -37 -19.5 t-39 -2.5h-274q-37 0 -74 29l-35 30q-36 28 -36 76v467q0 20 5.5 35t11.5 22.5t19 18.5l35 28q35 31 74 31h285q28 0 36 -2t21 -12q16 -16 16 -31h9v45h114v-575q0 -23 2.5 -29.5t16.5 -17.5q14 -12 21 -14.5t30 -2.5h37l49 45v584q0 46 -5 58.5t-32 35.5l-25 21 q-27 23 -38.5 26.5t-49.5 3.5h-639q-38 0 -49.5 -3.5t-38.5 -26.5l-24 -21q-27 -23 -32 -35.5t-5 -58.5v-717q0 -46 5 -58.5t32 -35.5l24 -21q27 -23 38.5 -26.5t49.5 -3.5h818v-111h-898q-23 0 -43 7t-28.5 13.5t-26.5 20.5l-49 41q-16 13 -24.5 22.5t-16.5 30t-8 49.5z M549 354q0 -24 2.5 -30.5t15.5 -16.5q13 -12 21 -14t35 -2h155q29 0 39 2.5t37 19.5q26 17 30.5 24.5t4.5 31.5v342q0 23 -2.5 29.5t-14.5 17.5q-13 10 -21 12t-36 2h-192q-27 0 -35 -2t-21 -12t-15.5 -16.5t-2.5 -30.5v-357z" />
<glyph unicode="A" horiz-adv-x="1439" d="M102 0l492 1434h242l501 -1434h-172l-106 297h-682l-103 -297h-172zM420 430h596l-283 821q-14 35 -14 60h-8q0 -22 -15 -60z" />
<glyph unicode="B" horiz-adv-x="1337" d="M205 0v1434h758q23 0 43 -7t28.5 -13.5t26.5 -20.5l49 -41q16 -13 24.5 -22.5t16.5 -30.5t8 -50v-350q0 -30 -7 -42.5t-26 -27.5l-69 -53q-10 -8 -28.5 -17t-29.5 -9v-11q11 0 29.5 -9t28.5 -17l98 -80q18 -16 23.5 -29t5.5 -51v-369q0 -29 -8 -49.5t-16.5 -30 t-24.5 -22.5q-22 -17 -50 -41q-18 -14 -26.5 -20.5t-28.5 -13.5t-43 -7h-782zM377 143h534q36 0 46.5 3t29.5 18q18 15 21.5 23.5t3.5 39.5v291q0 33 -4.5 43t-30.5 31l-45 37q-24 20 -34 23t-42 3h-479v-512zM377 799h444q38 0 48.5 2.5t31.5 19.5l53 43q24 20 28.5 30 t4.5 46v266q0 32 -3 41t-21 23q-19 15 -29 17.5t-47 2.5h-510v-491z" />
<glyph unicode="C" horiz-adv-x="1357" d="M205 184v1065q0 41 12.5 62.5t36.5 40.5l49 41q18 14 26.5 20.5t28.5 13.5t43 7h660q23 0 43 -7t28.5 -13.5t26.5 -20.5l49 -41q16 -13 24.5 -22.5t16.5 -30.5t8 -50v-82h-172v39q0 32 -3 41t-21 23q-19 15 -29 17.5t-47 2.5h-508q-37 0 -47 -2.5t-29 -17.5 q-18 -14 -21 -23t-3 -41v-979q0 -32 3 -40t21 -23q19 -15 29.5 -18t46.5 -3h508q36 0 46.5 3t29.5 18q18 15 21 23t3 40v39h172v-82q0 -29 -8 -49.5t-16.5 -30t-24.5 -22.5l-49 -41q-18 -14 -26.5 -20.5t-28.5 -13.5t-43 -7h-660q-23 0 -43 7t-28.5 13.5t-26.5 20.5l-49 41 q-16 13 -24.5 22.5t-16.5 30t-8 49.5z" />
<glyph unicode="D" horiz-adv-x="1460" d="M205 0v1434h758q34 0 54 -9t44 -32l196 -164q19 -16 26.5 -23.5t15.5 -23.5t8 -35v-860q0 -19 -8 -35t-15.5 -23.5t-26.5 -23.5l-196 -164q-24 -23 -44 -32t-54 -9h-758zM377 143h512q34 0 54 9t44 32l98 82q19 16 26.5 23.5t15.5 23.5t8 35v737q0 19 -8 35t-15.5 23.5 t-26.5 23.5l-98 82q-24 23 -44 32t-54 9h-512v-1147z" />
<glyph unicode="E" horiz-adv-x="1275" d="M205 0v1434h917v-144h-745v-491h631v-144h-631v-512h745v-143h-917z" />
<glyph unicode="F" horiz-adv-x="1173" d="M205 0v1434h835v-144h-663v-491h549v-144h-549v-655h-172z" />
<glyph unicode="G" horiz-adv-x="1406" d="M205 184v1065q0 41 12.5 62.5t36.5 40.5l49 41q18 14 26.5 20.5t28.5 13.5t43 7h656q23 0 43 -7t28.5 -13.5t26.5 -20.5l49 -41q16 -13 24.5 -22.5t16.5 -30.5t8 -50v-82h-172v39q0 32 -3 41t-21 23q-19 15 -29 17.5t-47 2.5h-504q-37 0 -47 -2.5t-29 -17.5 q-18 -14 -21 -23t-3 -41v-979q0 -32 3 -40t21 -23q19 -15 29.5 -18t46.5 -3h504q36 0 46.5 3t29.5 18q18 15 21 23t3 40v367h-311v143h483v-553q0 -29 -8 -49.5t-16.5 -30t-24.5 -22.5l-49 -41q-18 -14 -26.5 -20.5t-28.5 -13.5t-43 -7h-656q-23 0 -43 7t-28.5 13.5 t-26.5 20.5l-49 41q-16 13 -24.5 22.5t-16.5 30t-8 49.5z" />
<glyph unicode="H" horiz-adv-x="1499" d="M205 0v1434h172v-635h745v635h172v-1434h-172v666h-745v-666h-172z" />
<glyph unicode="I" horiz-adv-x="581" d="M205 0v1434h172v-1434h-172z" />
<glyph unicode="J" horiz-adv-x="1042" d="M72 184v144h172v-101q0 -32 3 -40t21 -23q19 -15 29.5 -18t46.5 -3h221q36 0 46.5 3t29.5 18q18 15 21.5 23.5t3.5 39.5v1207h172v-1250q0 -28 -8 -49.5t-17 -30.5t-25 -22l-49 -41q-18 -14 -26.5 -20.5t-28.5 -13.5t-43 -7h-373q-23 0 -43 7t-28.5 13.5t-26.5 20.5 l-49 41q-16 13 -24.5 22.5t-16.5 30t-8 49.5z" />
<glyph unicode="K" horiz-adv-x="1267" d="M205 0v1434h172v-635h221l309 497q22 35 32 46t42 34l39 27q33 23 46 27t50 4h45v-80q0 -46 -6.5 -58t-42.5 -34l-22 -13q-33 -19 -44 -29.5t-32 -43.5l-246 -398q-29 -51 -51 -51v-8q20 0 51 -49l260 -412q21 -34 32 -44.5t44 -29.5l22 -12q37 -22 43.5 -34t6.5 -58v-80 h-58q-37 0 -50 4t-46 27l-39 26q-31 22 -41 33.5t-33 48.5l-319 516h-213v-655h-172z" />
<glyph unicode="L" horiz-adv-x="1077" d="M205 0v1434h172v-1291h713v-143h-885z" />
<glyph unicode="M" horiz-adv-x="1875" d="M205 0v1434h278l439 -1145q12 -35 12 -58h8q0 23 12 58l441 1145h276v-1434h-172v1210q0 50 14 99l-6 2l-503 -1311h-132q-95 232 -180 448.5t-140.5 364t-96 258t-62.5 173t-24 67.5l-7 -2q1 -5 4.5 -15.5t4 -13.5t2.5 -11.5t2.5 -15.5t1 -18t0.5 -25v-1210h-172z" />
<glyph unicode="N" horiz-adv-x="1495" d="M205 0v1434h172l749 -1168l7 2q-1 5 -4.5 15.5t-4 13.5t-2.5 11.5t-2.5 15.5t-1 18t-0.5 25v1067h172v-1434h-172l-749 1151l-7 -2q2 -5 4.5 -15t3.5 -13.5t3 -12t2.5 -15t1 -17.5t0.5 -25v-1051h-172z" />
<glyph unicode="O" horiz-adv-x="1552" d="M205 184v1065q0 41 12.5 62.5t36.5 40.5l49 41q18 14 26.5 20.5t28.5 13.5t43 7h750q23 0 43 -7t28.5 -13.5t26.5 -20.5l49 -41q16 -13 25 -22.5t17 -30.5t8 -50v-1065q0 -28 -8 -49.5t-17 -30.5t-25 -22l-49 -41q-18 -14 -26.5 -20.5t-28.5 -13.5t-43 -7h-750 q-23 0 -43 7t-28.5 13.5t-26.5 20.5l-49 41q-16 13 -24.5 22.5t-16.5 30t-8 49.5zM377 227q0 -32 3 -40t21 -23q19 -15 29.5 -18t46.5 -3h598q36 0 46.5 3t29.5 18q18 15 21.5 23.5t3.5 39.5v979q0 32 -3.5 40.5t-21.5 23.5q-19 15 -29 17.5t-47 2.5h-598q-37 0 -47 -2.5 t-29 -17.5q-18 -14 -21 -23t-3 -41v-979z" />
<glyph unicode="P" horiz-adv-x="1312" d="M205 0v1434h758q23 0 43 -7t28.5 -13.5t26.5 -20.5l49 -41q16 -13 24.5 -22.5t16.5 -30.5t8 -50v-491q0 -41 -12.5 -62.5t-36.5 -40.5l-49 -41q-18 -14 -26.5 -20.5t-28.5 -13.5t-43 -7h-586v-573h-172zM377 717h510q37 0 47 2.5t29 17.5q18 14 21 23t3 41v405 q0 32 -3 41t-21 23q-19 15 -29 17.5t-47 2.5h-510v-573z" />
<glyph unicode="Q" horiz-adv-x="1568" d="M205 184v1065q0 41 12.5 62.5t36.5 40.5l49 41q18 14 26.5 20.5t28.5 13.5t43 7h750q23 0 43 -7t28.5 -13.5t26.5 -20.5l49 -41q16 -13 25 -22.5t17 -30.5t8 -50v-1065q0 -28 -8 -49.5t-17 -30.5t-25 -22l-49 -41q-18 -14 -26.5 -20.5t-28.5 -13.5t-43 -7h-750 q-23 0 -43 7t-28.5 13.5t-26.5 20.5l-49 41q-16 13 -24.5 22.5t-16.5 30t-8 49.5zM377 227q0 -32 3 -40t21 -23q19 -15 29.5 -18t46.5 -3h598q36 0 46.5 3t29.5 18q18 15 21.5 23.5t3.5 39.5v979q0 32 -3.5 40.5t-21.5 23.5q-19 15 -29 17.5t-47 2.5h-598q-37 0 -47 -2.5 t-29 -17.5q-18 -14 -21 -23t-3 -41v-979zM739 0h185l108 -123q12 -13 25 -16.5t51 -3.5h219q27 -20 32 -32t5 -58v-54h-322q-71 0 -98 41z" />
<glyph unicode="R" horiz-adv-x="1378" d="M205 0v1434h758q23 0 43 -7t28.5 -13.5t26.5 -20.5l49 -41q16 -13 24.5 -22.5t16.5 -30.5t8 -50v-479q0 -40 -13 -62t-38 -44l-51 -43q-46 -37 -94 -37h-115l211 -328q22 -34 32 -43.5t42 -28.5l22 -12q36 -22 42.5 -34t6.5 -58v-80h-51q-37 0 -50 4t-46 27l-39 26 q-32 23 -42 34t-32 46l-272 436h-295v-573h-172zM377 717h510q37 0 47 2.5t29 17.5q18 14 21 23t3 41v405q0 32 -3 41t-21 23q-19 15 -29 17.5t-47 2.5h-510v-573z" />
<glyph unicode="S" horiz-adv-x="1286" d="M154 184v82h172v-39q0 -32 3 -40t21 -23q19 -15 29.5 -18t46.5 -3h434q36 0 46.5 3t29.5 18q18 15 21.5 23.5t3.5 39.5v344q0 31 -3.5 40t-21.5 24q-19 15 -29 17.5t-47 2.5h-489q-23 0 -43 7t-29.5 13.5t-26.5 20.5l-55 47q-15 11 -22.5 19t-14 24.5t-6.5 38.5v424 q0 41 12.5 62.5t36.5 40.5l49 41q17 14 26.5 20.5t29.5 13.5t43 7h544q23 0 43 -7t29.5 -13.5t26.5 -20.5l49 -41q16 -13 24.5 -22.5t16.5 -30.5t8 -50v-82h-172v39q0 32 -3.5 40.5t-21.5 23.5q-19 15 -28.5 17.5t-46.5 2.5h-394q-37 0 -46.5 -2.5t-28.5 -17.5 q-18 -15 -21.5 -23.5t-3.5 -40.5v-323q0 -31 3.5 -40t21.5 -24q19 -15 28.5 -17.5t46.5 -2.5h490q23 0 43 -7t28.5 -13.5t26.5 -20.5l49 -41q16 -13 25 -22.5t17 -30.5t8 -50v-430q0 -28 -8 -49.5t-17 -30.5t-25 -22l-49 -41q-18 -14 -26.5 -20.5t-28.5 -13.5t-43 -7h-586 q-23 0 -43 7t-28.5 13.5t-26.5 20.5l-49 41q-16 13 -24.5 22.5t-16.5 30t-8 49.5z" />
<glyph unicode="T" horiz-adv-x="1058" d="M-12 1290v144h1081v-144h-455v-1290h-172v1290h-454z" />
<glyph unicode="U" horiz-adv-x="1499" d="M205 184v1250h172v-1207q0 -32 3 -40t21 -23q19 -15 29.5 -18t46.5 -3h545q36 0 46.5 3t29.5 18q18 15 21 23t3 40v1207h172v-1250q0 -29 -8 -49.5t-16.5 -30t-24.5 -22.5l-49 -41q-18 -14 -26.5 -20.5t-28.5 -13.5t-43 -7h-697q-23 0 -43 7t-28.5 13.5t-26.5 20.5 l-49 41q-16 13 -24.5 22.5t-16.5 30t-8 49.5z" />
<glyph unicode="V" horiz-adv-x="1236" d="M31 1434h182l389 -1254q12 -40 12 -53h9q0 13 12 53l389 1254h182l-475 -1434h-225z" />
<glyph unicode="W" horiz-adv-x="1908" d="M31 1434h182l307 -1262l10 -51h11l8 51l303 1262h227l312 -1262l12 -51h8l8 51l297 1262h182l-385 -1434h-235l-299 1233l-10 51h-8l-11 -51l-293 -1233h-241z" />
<glyph unicode="X" horiz-adv-x="1261" d="M72 0l434 743l-383 691h184l295 -553q25 -50 25 -64h8q0 9 4 19.5t11 24.5t9 20l295 553h185l-383 -691l434 -743h-189l-346 614q-20 32 -20 58h-8q0 -24 -21 -58l-346 -614h-188z" />
<glyph unicode="Y" horiz-adv-x="1118" d="M2 1434h197l329 -627q25 -44 27 -64h8q1 12 27 64l330 627h196l-471 -836v-598h-172v598z" />
<glyph unicode="Z" horiz-adv-x="1150" d="M92 0v152l731 1095q25 28 43 33v10h-770v144h959v-156l-736 -1092q-17 -25 -43 -32v-11h783v-143h-967z" />
<glyph unicode="[" horiz-adv-x="595" d="M115 -225v1679h368v-133h-221v-1413h221v-133h-368z" />
<glyph unicode="\" horiz-adv-x="1075" d="M-82 1434h164l1075 -1618h-156z" />
<glyph unicode="]" horiz-adv-x="602" d="M113 -92h221v1413h-221v133h368v-1679h-368v133z" />
<glyph unicode="^" horiz-adv-x="878" d="M205 1147l160 246h149l160 -246h-154l-53 82q-23 35 -23 61h-8q0 -22 -22 -61l-54 -82h-155z" />
<glyph unicode="_" horiz-adv-x="1081" d="M0 -143h1081v-133h-1081v133z" />
<glyph unicode="`" horiz-adv-x="675" d="M154 1323l88 129l280 -244l-53 -82z" />
<glyph unicode="a" horiz-adv-x="1159" d="M143 184v246q0 28 8 49.5t17 30.5t25 22l49 41q18 14 26.5 20.5t28.5 13.5t43 7h367q39 0 48.5 -2.5t26.5 -17.5q18 -14 21.5 -20.5t3.5 -20.5h8v244q0 32 -3 40t-21 23q-19 15 -29.5 18t-46.5 3h-332q-37 0 -50.5 -5.5t-49.5 -35.5l-123 102l49 41q36 30 49.5 35.5 t50.5 5.5h482q23 0 43 -7t28.5 -13.5t26.5 -20.5l49 -41q16 -13 24.5 -22.5t16.5 -30t8 -49.5v-613q0 -31 3.5 -39.5t21.5 -23.5q18 -14 21 -23t3 -41v-100h-71q-36 0 -50 5t-38 26q-33 26 -33 51h-8q0 -26 -45 -51q-36 -23 -49.5 -27t-51.5 -4h-350q-23 0 -43 7t-28.5 13.5 t-26.5 20.5l-49 41q-16 13 -25 22t-17 30.5t-8 49.5zM315 227q0 -31 3.5 -39.5t21.5 -23.5q19 -15 29.5 -18t46.5 -3h250q37 0 50.5 4t49.5 27t42.5 33t6.5 41v139q0 32 -3 41t-21 23q-19 15 -29 17.5t-47 2.5h-299q-37 0 -47 -2.5t-29 -17.5q-18 -15 -21.5 -24t-3.5 -40 v-160z" />
<glyph unicode="b" horiz-adv-x="1130" d="M123 0v1516h172v-588h8q0 18 45 57q46 39 78 39h385q23 0 43 -7t28.5 -13.5t26.5 -20.5l49 -41q16 -13 25 -22t17 -30.5t8 -49.5v-656q0 -28 -8 -49.5t-17 -30.5t-25 -22l-49 -41q-18 -14 -26.5 -20.5t-28.5 -13.5t-43 -7h-383q-37 0 -50.5 4t-49.5 27q-46 22 -49 45h-9 v-76h-147zM295 248q0 -31 6.5 -41t42.5 -33t49.5 -27t50.5 -4h291q36 0 46.5 3t29.5 18q18 15 21.5 23.5t3.5 39.5v570q0 31 -3.5 39.5t-21.5 23.5q-19 15 -29.5 18t-46.5 3h-289q-39 0 -52.5 -4t-49.5 -27t-42.5 -33t-6.5 -41v-528z" />
<glyph unicode="c" horiz-adv-x="1054" d="M123 184v656q0 29 8 49.5t16.5 30t24.5 22.5l49 41q18 14 26.5 20.5t28.5 13.5t43 7h426q23 0 43 -7t29.5 -13.5t26.5 -20.5l49 -41q16 -13 24.5 -22.5t16.5 -30t8 -49.5v-82h-172v39q0 31 -3.5 39.5t-21.5 23.5q-19 15 -29 18t-46 3h-275q-36 0 -46.5 -3t-29.5 -18 q-18 -15 -21 -23t-3 -40v-570q0 -32 3 -40t21 -23q19 -15 29.5 -18t46.5 -3h275q36 0 46 3t29 18q18 15 21.5 23.5t3.5 39.5v39h172v-82q0 -29 -8 -49.5t-16.5 -30t-24.5 -22.5l-49 -41q-17 -14 -26.5 -20.5t-29.5 -13.5t-43 -7h-426q-23 0 -43 7t-28.5 13.5t-26.5 20.5 l-49 41q-16 13 -24.5 22.5t-16.5 30t-8 49.5z" />
<glyph unicode="d" horiz-adv-x="1179" d="M123 184v656q0 29 8 49.5t16.5 30t24.5 22.5l49 41q18 14 26.5 20.5t28.5 13.5t43 7h361q23 0 43 -7t28.5 -13.5t26.5 -20.5q4 -4 12.5 -12t13.5 -13t11 -12t9 -13t3 -11h9v594h172v-1289q0 -32 3 -40t21 -23t21.5 -23.5t3.5 -40.5v-100h-72q-36 0 -50 5t-38 26 q-33 26 -33 51h-8q0 -26 -45 -51q-36 -23 -49.5 -27t-50.5 -4h-392q-23 0 -43 7t-28.5 13.5t-26.5 20.5l-49 41q-16 13 -24.5 22.5t-16.5 30t-8 49.5zM295 227q0 -32 3 -40t21 -23q19 -15 29.5 -18t46.5 -3h291q37 0 50.5 4t49.5 27q37 23 43.5 33t6.5 41v510q0 19 -8 35.5 t-17 25t-25 21.5q-18 14 -26.5 20.5t-28.5 13.5t-43 7h-293q-36 0 -46.5 -3t-29.5 -18q-18 -15 -21 -23t-3 -40v-570z" />
<glyph unicode="e" horiz-adv-x="1118" d="M123 184v656q0 29 8 49.5t16.5 30t24.5 22.5l49 41q18 14 26.5 20.5t28.5 13.5t43 7h478q39 0 98 -41l51 -41q25 -18 37 -39.5t12 -62.5v-420h-700v-193q0 -32 3 -40t21 -23q19 -15 29.5 -18t46.5 -3h398q37 0 50.5 5.5t49.5 35.5l123 -102l-49 -41q-36 -30 -49.5 -35.5 t-51.5 -5.5h-547q-23 0 -43 7t-28.5 13.5t-26.5 20.5l-49 41q-16 13 -24.5 22.5t-16.5 30t-8 49.5zM295 553h528v244q0 32 -3 40t-21 23q-19 15 -29.5 18t-46.5 3h-328q-36 0 -46.5 -3t-29.5 -18q-18 -15 -21 -23t-3 -40v-244z" />
<glyph unicode="f" horiz-adv-x="729" d="M72 971v53h147v258q0 29 8 49.5t16.5 30t24.5 22.5l49 41q17 14 26.5 20.5t29.5 13.5t43 7h246q27 -20 31.5 -31.5t4.5 -58.5v-53h-219q-27 0 -36 -3t-27 -17q-18 -15 -21.5 -24t-3.5 -40v-215h230q27 -20 31.5 -31.5t4.5 -58.5v-53h-266v-881h-172v881h-110 q-27 20 -32 32t-5 58z" />
<glyph unicode="g" horiz-adv-x="1179" d="M123 184v656q0 29 8 49.5t16.5 30t24.5 22.5l49 41q18 14 26.5 20.5t28.5 13.5t43 7h392q37 0 50.5 -4t49.5 -27q45 -25 45 -51h8q0 25 33 51q24 21 38 26t50 5h72v-100q0 -32 -3.5 -40.5t-21.5 -23.5t-21 -23t-3 -40v-1145q0 -29 -8 -50t-17 -30.5t-25 -22.5l-49 -41 q-17 -14 -26.5 -20t-29 -13t-42.5 -7h-598v53q0 46 5 58t32 32h485q37 0 47 2.5t29 17.5q18 15 21.5 24t3.5 40v403h-9q-4 -19 -49 -57q-18 -14 -26.5 -20.5t-28.5 -13.5t-43 -7h-361q-23 0 -43 7t-28.5 13.5t-26.5 20.5l-49 41q-16 13 -24.5 22.5t-16.5 30t-8 49.5z M295 227q0 -32 3 -40t21 -23q19 -15 29.5 -18t46.5 -3h293q23 0 43 7t28.5 13.5t26.5 20.5q16 13 25 21.5t17 25t8 35.5v510q0 31 -6.5 41t-43.5 33q-36 23 -49.5 27t-50.5 4h-291q-36 0 -46.5 -3t-29.5 -18q-18 -15 -21 -23t-3 -40v-570z" />
<glyph unicode="h" horiz-adv-x="1103" d="M123 0v1516h172v-588h8q0 18 45 57q46 39 78 39h358q23 0 43 -7t29.5 -13.5t26.5 -20.5l49 -41q16 -13 24.5 -22.5t16.5 -30t8 -49.5v-840h-172v797q0 31 -3.5 39.5t-21.5 23.5q-19 15 -29 18t-46 3h-263q-39 0 -52.5 -4t-49.5 -27t-42.5 -33t-6.5 -41v-776h-172z" />
<glyph unicode="i" horiz-adv-x="434" d="M113 1327v16q0 40 2.5 50t19.5 24q12 12 23 14.5t55 2.5h8q43 0 55 -2.5t25 -14.5q15 -15 18 -25.5t3 -48.5v-16q0 -39 -3 -50t-20 -24q-12 -12 -22.5 -14t-53.5 -2h-10q-45 0 -56 2t-24 14q-15 13 -17.5 24t-2.5 50zM131 0v1024h172v-1024h-172z" />
<glyph unicode="j" horiz-adv-x="419" d="M-10 -356q0 46 5 58t32 32q37 0 45.5 2.5t27.5 17.5q18 15 21.5 24t3.5 40v1206h172v-1249q0 -41 -12.5 -62.5t-36.5 -40.5l-49 -41q-17 -14 -26.5 -20.5t-29.5 -13.5t-43 -7h-110v54zM104 1327v16q0 39 3 49t20 25q12 12 23 14.5t55 2.5h8q43 0 55 -2.5t25 -14.5 q15 -15 17.5 -25t2.5 -49v-16q0 -40 -2.5 -50.5t-19.5 -23.5q-12 -12 -22.5 -14t-53.5 -2h-10q-45 0 -56 2t-24 14q-15 13 -18 24t-3 50z" />
<glyph unicode="k" horiz-adv-x="1024" d="M123 0v1516h172v-932h172l184 301q23 35 34 47.5t42 34.5l39 26q33 23 46 27t50 4h41v-80q0 -46 -6.5 -58t-42.5 -32l-23 -12q-31 -19 -40.5 -29.5t-34.5 -46.5l-133 -207q-19 -28 -37 -39v-8q18 -4 47 -47l299 -465h-191l-272 440h-174v-440h-172z" />
<glyph unicode="l" horiz-adv-x="507" d="M133 152v1364h172v-1260q0 -46 4.5 -57.5t28.5 -28.5q27 -20 32 -32t5 -58v-80h-62q-39 0 -51.5 4t-42.5 25l-45 30q-30 21 -35.5 34t-5.5 59z" />
<glyph unicode="m" horiz-adv-x="1742" d="M123 924v100h72q36 0 50 -5t38 -26q32 -25 32 -51h9q0 26 45 51q36 23 49.5 27t50.5 4h307q23 0 42 -6t29 -13.5t27 -21.5q43 -38 46 -57h8q2 17 39 45l30 22q36 23 49.5 27t51.5 4h325q23 0 43 -7t29.5 -13.5t26.5 -20.5l49 -41q16 -13 24.5 -22.5t16.5 -30t8 -49.5 v-840h-172v797q0 31 -3.5 39.5t-21.5 23.5q-19 15 -29 18t-46 3h-226q-37 0 -50.5 -4t-49.5 -27q-30 -19 -39 -28.5t-10 -24.5v-797h-172v797q0 31 -3.5 39.5t-21.5 23.5q-19 15 -29.5 18t-46.5 3h-206q-38 0 -51.5 -4t-49.5 -27t-42.5 -33t-6.5 -41v-776h-172v797 q0 31 -3.5 39.5t-21.5 23.5q-18 14 -21 23t-3 41z" />
<glyph unicode="n" horiz-adv-x="1150" d="M123 924v100h72q36 0 50 -5t38 -26q32 -25 32 -51h9q0 26 45 51q36 23 49.5 27t50.5 4h362q23 0 43 -7t29.5 -13.5t26.5 -20.5l49 -41q16 -13 24.5 -22.5t16.5 -30t8 -49.5v-840h-172v797q0 31 -3.5 39.5t-21.5 23.5q-19 15 -29 18t-46 3h-262q-38 0 -51.5 -4t-49.5 -27 t-42.5 -33t-6.5 -41v-776h-172v797q0 31 -3.5 39.5t-21.5 23.5q-18 14 -21 23t-3 41z" />
<glyph unicode="o" horiz-adv-x="1134" d="M125 184v656q0 29 8 49.5t16.5 30t24.5 22.5l49 41q17 14 26.5 20.5t29.5 13.5t43 7h491q23 0 43 -7t28.5 -13.5t26.5 -20.5l50 -41q16 -13 24.5 -22.5t16.5 -30t8 -49.5v-656q0 -29 -8 -49.5t-16.5 -30t-24.5 -22.5l-50 -41q-18 -14 -26.5 -20.5t-28.5 -13.5t-43 -7 h-491q-23 0 -43 7t-29.5 13.5t-26.5 20.5l-49 41q-16 13 -24.5 22.5t-16.5 30t-8 49.5zM297 227q0 -31 3.5 -39.5t21.5 -23.5q19 -15 29 -18t46 -3h340q36 0 46.5 3t29.5 18q18 15 21.5 23.5t3.5 39.5v570q0 31 -3.5 39.5t-21.5 23.5q-19 15 -29.5 18t-46.5 3h-340 q-36 0 -46 -3t-29 -18q-18 -15 -21.5 -23.5t-3.5 -39.5v-570z" />
<glyph unicode="p" horiz-adv-x="1179" d="M123 924v100h72q36 0 50 -5t38 -26q32 -25 32 -51h9q0 26 45 51q36 23 49.5 27t50.5 4h391q23 0 43 -7t28.5 -13.5t26.5 -20.5l50 -41q16 -13 24.5 -22.5t16.5 -30t8 -49.5v-656q0 -29 -8 -49.5t-16.5 -30t-24.5 -22.5l-50 -41q-18 -14 -26.5 -20.5t-28.5 -13.5t-43 -7 h-360q-52 0 -99 41q-4 4 -12.5 12t-13.5 13t-11 12t-9 13t-3 11h-8v-634h-172v1329q0 31 -3.5 39.5t-21.5 23.5q-18 14 -21 23t-3 41zM344 266q0 -28 12.5 -45.5t36.5 -36.5q17 -14 26.5 -20.5t29.5 -13.5t43 -7h292q36 0 46.5 3t29.5 18q18 15 21.5 23.5t3.5 39.5v570 q0 31 -3.5 39.5t-21.5 23.5q-19 15 -29.5 18t-46.5 3h-290q-38 0 -51.5 -4t-49.5 -27t-42.5 -33t-6.5 -41v-510z" />
<glyph unicode="q" horiz-adv-x="1179" d="M123 184v656q0 29 8 49.5t16.5 30t24.5 22.5l49 41q18 14 26.5 20.5t28.5 13.5t43 7h392q37 0 50.5 -4t49.5 -27q45 -25 45 -51h8q0 25 33 51q24 21 38 26t50 5h72v-100q0 -32 -3.5 -40.5t-21.5 -23.5t-21 -23t-3 -40v-1329h-172v634h-9q0 -5 -3 -11t-9 -13t-11 -12 t-13.5 -13t-12.5 -12q-47 -41 -98 -41h-361q-23 0 -43 7t-28.5 13.5t-26.5 20.5l-49 41q-16 13 -24.5 22.5t-16.5 30t-8 49.5zM295 227q0 -32 3 -40t21 -23q19 -15 29.5 -18t46.5 -3h293q23 0 43 7t28.5 13.5t26.5 20.5q16 13 25 21.5t17 25t8 35.5v510q0 31 -6.5 41 t-43.5 33q-36 23 -49.5 27t-50.5 4h-291q-36 0 -46.5 -3t-29.5 -18q-18 -15 -21 -23t-3 -40v-570z" />
<glyph unicode="r" horiz-adv-x="856" d="M123 924v100h72q36 0 50 -5t38 -26q32 -25 32 -51h9q0 26 45 51q36 23 49.5 27t50.5 4h188q23 0 43 -7t29.5 -13.5t26.5 -20.5l49 -41l-123 -102l-25 20q-19 15 -29 18t-46 3h-88q-38 0 -51.5 -4t-49.5 -27t-42.5 -33t-6.5 -41v-776h-172v797q0 31 -3.5 39.5t-21.5 23.5 q-18 14 -21 23t-3 41z" />
<glyph unicode="s" horiz-adv-x="1093" d="M123 184v82h172v-39q0 -32 3 -40t21 -23q19 -15 29.5 -18t46.5 -3h303q36 0 46.5 3t29.5 18q18 15 21.5 23.5t3.5 39.5v166q-2 17 -25 37q-19 15 -29.5 18t-46.5 3h-358q-23 0 -43 7t-28.5 13.5t-26.5 20.5l-49 40q-16 13 -25 22.5t-17 30.5t-8 50v205q0 28 8 49.5 t17 30.5t25 22l49 41q18 14 26.5 20.5t28.5 13.5t43 7h434q23 0 43 -7t28.5 -13.5t26.5 -20.5l50 -41q16 -13 24.5 -22.5t16.5 -30t8 -49.5v-82h-172v39q0 31 -3.5 39.5t-21.5 23.5q-19 15 -29.5 18t-46.5 3h-282q-36 0 -46.5 -3t-29.5 -18q-18 -15 -21.5 -23.5t-3.5 -39.5 v-119q0 -32 3.5 -40.5t21.5 -23.5q19 -15 29 -17.5t47 -2.5h358q23 0 43 -7t28.5 -13.5t26.5 -20.5l50 -41q16 -13 24.5 -22.5t16.5 -30t8 -49.5v-226q0 -29 -8 -49.5t-16.5 -30t-24.5 -22.5l-50 -41q-18 -14 -26.5 -20.5t-28.5 -13.5t-43 -7h-455q-23 0 -43 7t-28.5 13.5 t-26.5 20.5l-49 41q-16 13 -24.5 22.5t-16.5 30t-8 49.5z" />
<glyph unicode="t" horiz-adv-x="774" d="M51 971v53h135v287h172v-287h263q27 -20 31.5 -31.5t4.5 -58.5v-53h-299v-654q0 -31 3.5 -39.5t21.5 -23.5q19 -15 29.5 -18t46.5 -3h186q27 -20 32 -32t5 -58v-53h-299q-23 0 -43 7t-28.5 13.5t-26.5 20.5l-49 41q-16 13 -25 22t-17 30.5t-8 49.5v697h-98q-27 20 -32 32 t-5 58z" />
<glyph unicode="u" horiz-adv-x="1110" d="M123 184v840h172v-797q0 -32 3 -40t21 -23q19 -15 29.5 -18t46.5 -3h221q38 0 51.5 4t49.5 27t42.5 33t6.5 41v776h172v-797q0 -31 3.5 -39.5t21.5 -23.5q18 -14 21 -23t3 -41v-100h-72q-36 0 -50 5t-38 26q-32 25 -32 51h-9q0 -26 -45 -51q-36 -23 -49.5 -27t-50.5 -4 h-322q-23 0 -43 7t-28.5 13.5t-26.5 20.5l-49 41q-16 13 -24.5 22.5t-16.5 30t-8 49.5z" />
<glyph unicode="v" horiz-adv-x="970" d="M31 1024h170l270 -836q10 -31 10 -49h8q0 15 11 49l270 836h170l-356 -1024h-197z" />
<glyph unicode="w" horiz-adv-x="1523" d="M31 1024h166l221 -850q10 -31 10 -49h8q0 18 10 49l211 850h209l211 -850q10 -42 10 -49h9q0 18 10 49l221 850h166l-291 -1024h-223l-203 836q-10 42 -10 49h-8q0 -7 -10 -49l-203 -836h-223z" />
<glyph unicode="x" horiz-adv-x="1011" d="M72 0l346 530l-322 494h178l201 -305q27 -41 27 -64h8q0 23 27 64l200 305h178l-321 -494l346 -530h-178l-225 344q-27 40 -27 62h-8q0 -22 -27 -62l-225 -344h-178z" />
<glyph unicode="y" horiz-adv-x="1101" d="M123 184v840h172v-797q0 -32 3 -40t21 -23q19 -15 29.5 -18t46.5 -3h262q37 0 51 4t50 27t42.5 33t6.5 41v776h172v-1372q0 -41 -12.5 -62.5t-36.5 -40.5l-49 -41q-17 -13 -27 -20t-29.5 -13.5t-42.5 -6.5h-589v53q0 47 4.5 58.5t31.5 31.5h502q37 0 47 2.5t29 17.5 q18 14 21 23t3 41v403h-8q-4 -19 -49 -57q-18 -14 -26.5 -20.5t-28.5 -13.5t-43 -7h-357q-23 0 -43 7t-28.5 13.5t-26.5 20.5l-49 41q-16 13 -24.5 22.5t-16.5 30t-8 49.5z" />
<glyph unicode="z" horiz-adv-x="970" d="M92 0v152l533 686q23 26 43 32v11h-531q-27 20 -32 32t-5 58v53h758v-156l-536 -682q-23 -26 -43 -32v-11h563q27 -20 32 -32t5 -58v-53h-787z" />
<glyph unicode="{" horiz-adv-x="571" d="M123 446v164l72 62q21 19 28.5 33.5t7.5 44.5v553q0 46 5.5 58t35.5 34l45 30q30 21 43 25t52 4h37v-80q0 -46 -5 -58t-32 -32q-24 -17 -28.5 -28.5t-4.5 -57.5v-504q0 -48 -5.5 -60.5t-35.5 -37.5l-53 -43q-25 -21 -45 -21v-8q21 0 45 -20l53 -43q30 -24 35.5 -37.5 t5.5 -61.5v-331q0 -46 4.5 -57.5t28.5 -28.5q27 -20 32 -32t5 -58v-80h-37q-40 0 -52.5 3.5t-42.5 24.5l-45 31q-30 22 -35.5 34t-5.5 58v381q0 30 -7.5 44.5t-28.5 33.5z" />
<glyph unicode="|" horiz-adv-x="552" d="M205 -369v1885h143v-1885h-143z" />
<glyph unicode="}" horiz-adv-x="571" d="M123 -145q0 46 5 58t32 32q24 17 28.5 28.5t4.5 57.5v331q0 49 5 62t35 37l54 43q24 20 45 20v8q-20 0 -45 21l-54 43q-30 24 -35 37t-5 61v504q0 46 -4.5 57.5t-28.5 28.5q-27 20 -32 32t-5 58v80h37q39 0 51.5 -4t42.5 -25l45 -30q30 -22 35.5 -34t5.5 -58v-553 q0 -30 8 -44t29 -34l72 -62v-164l-72 -61q-21 -20 -29 -34t-8 -44v-381q0 -46 -5.5 -58t-35.5 -34l-45 -31q-30 -21 -42 -24.5t-52 -3.5h-37v80z" />
<glyph unicode="~" horiz-adv-x="931" d="M154 1253l161 80q22 13 50 13q29 0 107 -35t97 -35q12 0 27 6l127 66l55 -105l-162 -82q-20 -12 -49 -12q-35 0 -107.5 36t-94.5 36q-19 0 -60 -21l-96 -51z" />
<glyph unicode="&#xa1;" horiz-adv-x="581" d="M205 -20l22 532h127l23 -532v-512h-172v512zM205 780v47q0 31 2 39.5t14 20.5q12 10 21 12t45 2h10q34 0 42.5 -2t18.5 -12q14 -12 16.5 -20.5t2.5 -39.5v-47q0 -30 -2.5 -38.5t-14.5 -20.5q-12 -10 -20.5 -12t-44.5 -2h-8q-36 0 -45 2t-19 12q-13 12 -15.5 20t-2.5 39z " />
<glyph unicode="&#xa2;" horiz-adv-x="1105" d="M123 184v656q0 29 8 49.5t16.5 30t24.5 22.5l49 41q18 14 26.5 20.5t28.5 13.5t43 7h162v205h144v-205h161q23 0 43 -7t29.5 -13.5t26.5 -20.5l49 -41q16 -13 24.5 -22.5t16.5 -30t8 -49.5v-82h-172v39q0 31 -3.5 39.5t-21.5 23.5q-19 15 -29 18t-46 3h-316 q-36 0 -46.5 -3t-29.5 -18q-18 -15 -21 -23t-3 -40v-570q0 -32 3 -40t21 -23q19 -15 29.5 -18t46.5 -3h316q36 0 46 3t29 18q18 15 21.5 23.5t3.5 39.5v39h172v-82q0 -29 -8 -49.5t-16.5 -30t-24.5 -22.5l-49 -41q-17 -14 -26.5 -20.5t-29.5 -13.5t-43 -7h-161v-207h-144 v207h-162q-23 0 -43 7t-28.5 13.5t-26.5 20.5l-49 41q-16 13 -24.5 22.5t-16.5 30t-8 49.5z" />
<glyph unicode="&#xa3;" horiz-adv-x="1204" d="M92 614v134h139v489q0 23 7 43t13.5 28.5t20.5 26.5l41 49q13 16 22.5 25t30.5 17t50 8h415q29 0 50 -8t30.5 -17t22.5 -25l41 -49q14 -18 20.5 -26.5t13.5 -28.5t7 -43v-70h-172v23q0 36 -3 46.5t-18 29.5q-15 18 -23 21t-40 3h-273q-32 0 -40 -3t-23 -21 q-15 -19 -18 -29.5t-3 -46.5v-442h400v-134h-400v-313q0 -23 -7 -42.5t-14.5 -30.5t-23.5 -29q-2 -3 -11.5 -14t-14 -15.5t-12 -9.5t-13.5 -6v-9h826v-145h-1024v145q19 0 35.5 8.5t24.5 16.5t21 25q14 18 20.5 26.5t13.5 28.5t7 43v321h-139z" />
<glyph unicode="&#xa4;" horiz-adv-x="1052" d="M92 346l105 105v497l-105 107l94 94l111 -107h459l110 107l95 -94l-105 -105v-497l105 -107l-95 -94l-106 106h-463l-111 -106zM311 500q0 -17 2 -22t11 -13q14 -10 41 -10h323q27 0 41 10q9 7 10.5 12t1.5 23v401q0 18 -1.5 23t-10.5 12q-14 10 -41 10h-323 q-27 0 -41 -10q-9 -8 -11 -13t-2 -22v-401z" />
<glyph unicode="&#xa5;" horiz-adv-x="1175" d="M31 1434h196l330 -627q25 -44 27 -64h8q2 15 26 64l330 627h197l-404 -715h256v-133h-323v-125h323v-133h-323v-328h-172v328h-324v133h324v125h-324v133h254z" />
<glyph unicode="&#xa6;" horiz-adv-x="552" d="M205 -369v777h143v-777h-143zM205 739v777h143v-777h-143z" />
<glyph unicode="&#xa7;" horiz-adv-x="1318" d="M154 -143h172v-39q0 -32 3 -41t21 -23q19 -15 29 -17.5t49 -2.5h461q37 0 47 2.5t29 17.5q18 14 21 23t3 41v151q0 39 -5.5 50.5t-35.5 35.5l-30 25q-30 26 -43 30.5t-52 4.5h-200q-38 0 -50.5 4t-40.5 28l-315 263q-23 19 -30.5 28t-8.5 25v221q0 48 5.5 60.5t35.5 37.5 l84 70q28 23 51 25v8q-27 3 -51 22l-63 54q-26 20 -31.5 30.5t-5.5 44.5v234q0 29 8 49.5t16.5 30t24.5 22.5l49 41q18 14 26.5 20.5t28.5 13.5t43 7h516q23 0 43 -7t29.5 -13.5t26.5 -20.5l49 -41q16 -13 24.5 -22.5t16.5 -30t8 -49.5v-82h-172v39q0 31 -3.5 39.5 t-21.5 23.5q-19 15 -29 18t-48 3h-363q-36 0 -46.5 -3t-29.5 -18q-18 -15 -21 -23t-3 -40v-152q0 -39 5.5 -50.5t35.5 -35.5l30 -24q30 -26 43 -30.5t52 -4.5h200q37 0 49 -4.5t41 -28.5l316 -262q29 -24 34 -35.5t5 -50.5v-189q0 -48 -5.5 -60.5t-35.5 -37.5l-84 -69 q-28 -23 -51 -25v-8q25 -3 51 -23l63 -53q26 -21 31.5 -32t5.5 -44v-233q0 -41 -12.5 -62.5t-36.5 -40.5l-49 -41q-18 -14 -26.5 -20.5t-28.5 -13.5t-43 -7h-615q-23 0 -43 7t-28.5 13.5t-26.5 20.5l-49 41q-16 13 -24.5 22.5t-16.5 30.5t-8 50v82zM350 528q0 -40 5 -52 t34 -36l195 -164q27 -23 38.5 -26.5t49.5 -3.5h180q39 0 51.5 4.5t42.5 30.5l31 26q21 20 29 34t8 44v131q0 40 -5 52t-34 36l-195 164q-27 23 -39 27t-49 4h-180q-39 0 -51.5 -4.5t-42.5 -30.5l-31 -27q-21 -20 -29 -34t-8 -44v-131z" />
<glyph unicode="&#xa8;" horiz-adv-x="794" d="M135 1286v17q0 32 3.5 41.5t17.5 25.5q12 14 22 16.5t51 2.5q46 0 59.5 -3t26.5 -16q12 -11 14.5 -20t2.5 -47v-17q0 -38 -2.5 -47t-16.5 -20q-13 -13 -24.5 -16t-48.5 -3h-11q-37 0 -48 3t-25 16q-14 12 -17.5 23t-3.5 44zM463 1286v17q0 33 3 42t17 25q12 14 22.5 16.5 t51.5 2.5q46 0 59.5 -3t26.5 -16q12 -10 14 -19t2 -48v-17q0 -39 -2.5 -48t-15.5 -19q-13 -13 -25 -16t-49 -3h-10q-37 0 -48.5 3t-25.5 16q-14 12 -17 22.5t-3 44.5z" />
<glyph unicode="&#xa9;" horiz-adv-x="1499" d="M154 266v860q0 41 12.5 62.5t36.5 40.5l49 41q18 14 26.5 20.5t28.5 13.5t43 7h799q23 0 43 -7t28.5 -13.5t26.5 -20.5l49 -41q16 -13 25 -22.5t17 -30.5t8 -50v-860q0 -28 -8 -49.5t-17 -30.5t-25 -22l-49 -41q-18 -14 -26.5 -20.5t-28.5 -13.5t-43 -7h-799q-23 0 -43 7 t-28.5 13.5t-26.5 20.5l-49 41q-16 13 -24.5 22.5t-16.5 30t-8 49.5zM281 338q0 -47 4.5 -59t31.5 -35l25 -21q27 -23 38.5 -26.5t49.5 -3.5h639q38 0 49.5 3.5t38.5 26.5l25 21q27 23 32 35.5t5 58.5v717q0 46 -5 58.5t-32 35.5l-25 20q-27 23 -39 27t-49 4h-639 q-37 0 -49 -4t-39 -27l-25 -20q-27 -23 -31.5 -35t-4.5 -59v-717zM426 383q0 -38 31 -61l28 -23q29 -25 56 -25h434q7 0 14 1t11.5 2.5t10 5t7.5 5l8 6t8 5.5l31 23q10 8 14.5 13t9.5 18t5 30v76h-131v-21q0 -17 -2.5 -22.5t-14.5 -16.5q-10 -9 -16.5 -10.5t-30.5 -1.5h-283 q-22 0 -28.5 1.5t-18.5 10.5q-9 9 -10.5 14t-1.5 23v520q0 18 1.5 23t10.5 14q12 9 19 11t28 2h283q23 0 29.5 -2t17.5 -11q12 -11 14.5 -16.5t2.5 -22.5v-20h131v76q0 25 -7 37t-22 24l-31 23q-1 1 -6.5 5t-7 5t-6.5 4.5t-8 4t-8.5 2.5t-11 2.5t-11.5 0.5h-434 q-28 0 -56 -24l-28 -23q-31 -23 -31 -61v-627z" />
<glyph unicode="&#xaa;" horiz-adv-x="890" d="M125 840v174q0 40 33 73l37 29q33 29 69 29h264q26 0 34 -2t22 -13q11 -9 13.5 -13.5t2.5 -14.5h6v155q0 23 -2 29.5t-14 16.5q-11 10 -19 12t-36 2h-226q-27 0 -36 -4t-35 -25l-86 88l32 29q24 21 34.5 25t37.5 4h352q35 0 72 -29l35 -29q11 -10 17 -16t12 -21.5 t6 -35.5v-431q0 -22 2 -28.5t14 -16.5t14 -16.5t2 -28.5v-73h-47q-27 0 -35.5 3.5t-27.5 22.5q-23 23 -27 35h-10q-5 -15 -25 -35q-23 -18 -34 -22t-39 -4h-273q-39 0 -69 30l-37 29q-11 9 -16.5 15.5t-11 21.5t-5.5 35zM258 885q0 -22 2 -28.5t14 -16.5q12 -11 20 -13 t34 -2h174q26 0 35.5 3t33.5 20q26 15 30.5 22t4.5 29v82q0 24 -2 30.5t-14 16.5q-13 10 -21.5 12t-36.5 2h-204q-27 0 -34.5 -2t-19.5 -12t-14 -16.5t-2 -30.5v-96z" />
<glyph unicode="&#xab;" horiz-adv-x="1069" d="M133 559l340 549l109 -82l-295 -467l295 -467l-109 -82zM487 559l340 549l109 -82l-295 -467l295 -467l-109 -82z" />
<glyph unicode="&#xac;" horiz-adv-x="1024" d="M123 602v133h778v-352h-133v219h-645z" />
<glyph unicode="&#xad;" horiz-adv-x="739" d="M123 602v133h491v-133h-491z" />
<glyph unicode="&#xae;" horiz-adv-x="1499" d="M154 266v860q0 41 12.5 62.5t36.5 40.5l49 41q18 14 26.5 20.5t28.5 13.5t43 7h799q23 0 43 -7t28.5 -13.5t26.5 -20.5l49 -41q16 -13 25 -22.5t17 -30.5t8 -50v-860q0 -28 -8 -49.5t-17 -30.5t-25 -22l-49 -41q-18 -14 -26.5 -20.5t-28.5 -13.5t-43 -7h-799q-23 0 -43 7 t-28.5 13.5t-26.5 20.5l-49 41q-16 13 -24.5 22.5t-16.5 30t-8 49.5zM281 338q0 -47 4.5 -59t31.5 -35l25 -21q27 -23 38.5 -26.5t49.5 -3.5h639q38 0 49.5 3.5t38.5 26.5l25 21q27 23 32 35.5t5 58.5v717q0 46 -5 58.5t-32 35.5l-25 20q-27 23 -39 27t-49 4h-639 q-37 0 -49 -4t-39 -27l-25 -20q-27 -23 -31.5 -35t-4.5 -59v-717zM426 274h131v344h182l164 -264q17 -27 43 -47l23 -16q21 -12 28.5 -14.5t28.5 -2.5h66v45q0 29 -4 37t-25 21l-14 4q-19 12 -26 19.5t-19 27.5l-121 190h78q28 0 55 23l31 23q28 24 28 65v283q0 36 -26 59 l-31 23q-2 1 -6 4.5t-5.5 4.5t-5.5 3.5t-6.5 4t-6.5 3t-8 2.5t-9 1.5t-10 0.5h-535v-844zM557 725v281h330q20 0 26.5 -2t18.5 -11q12 -7 14 -12.5t2 -26.5v-180q0 -19 -2 -24.5t-14 -12.5q-12 -9 -18 -10.5t-27 -1.5h-330z" />
<glyph unicode="&#xaf;" horiz-adv-x="1081" d="M0 1300v134h1081v-134h-1081z" />
<glyph unicode="&#xb0;" horiz-adv-x="821" d="M123 954v385q0 32 24 52l27 22q25 21 49 21h377q26 0 51 -21l25 -22q24 -20 24 -52v-385q0 -31 -24 -51l-25 -22q-25 -21 -51 -21h-377q-24 0 -49 21l-27 22q-24 20 -24 51zM258 1022q0 -18 1.5 -23t10.5 -12q14 -10 41 -10h203q19 0 24.5 1.5t14.5 8.5t10.5 12t1.5 23 v250q0 18 -1.5 23t-10.5 12t-14.5 8.5t-24.5 1.5h-203q-27 0 -41 -10q-9 -7 -10.5 -12t-1.5 -23v-250z" />
<glyph unicode="&#xb1;" horiz-adv-x="1101" d="M123 225v133h856v-133h-856zM123 848v133h360v360h133v-360h363v-133h-363v-363h-133v363h-360z" />
<glyph unicode="&#xb2;" horiz-adv-x="733" d="M121 1260v71q0 38 26 60l27 20q2 1 9 6.5t11.5 8t13.5 5.5t19 3h291q25 0 55 -23l25 -20q29 -23 29 -60v-194q0 -29 -25 -52l-315 -247q-17 -17 -17 -29h373v-113h-506v119q0 25 3 32t18 21l317 267q17 17 17 32v121q0 16 -11 25q-10 8 -32 8h-162q-23 0 -33 -8t-10 -25 v-28h-123z" />
<glyph unicode="&#xb3;" horiz-adv-x="759" d="M119 799v71h123v-30q0 -15 10 -23t33 -8h192q18 0 31 8q10 7 10 23v131q0 14 -16 30l-15 13q-18 16 -41 16h-131v107h117q18 0 24 2.5t23 15.5q19 14 23 20.5t4 22.5v90q0 17 -10 25t-31 8h-160q-23 0 -33 -8t-10 -25v-28h-123v71q0 37 27 60l24 20q28 23 56 23h276 q7 0 13.5 -1t10.5 -2.5t9.5 -4.5t8 -4.5t8 -5.5t6.5 -5l22 -20q29 -25 29 -60v-162q0 -18 -4.5 -27t-18.5 -20l-18 -14q-15 -10 -31 -10v-8q20 0 31 -11l28 -28q18 -15 21.5 -23.5t3.5 -34.5v-194q0 -26 -3.5 -35.5t-16.5 -24.5l-19 -18q-25 -25 -55 -25h-320q-27 0 -55 23 l-27 20q-26 19 -26 60z" />
<glyph unicode="&#xb4;" horiz-adv-x="675" d="M154 1208l280 244l88 -129l-315 -197z" />
<glyph unicode="&#xb5;" horiz-adv-x="1138" d="M123 -532v1556h172v-797q0 -32 3 -40t21 -23q19 -15 29.5 -18t46.5 -3h250q37 0 50.5 4t49.5 27q37 23 43.5 33t6.5 41v776h172v-797q0 -32 3 -40t21 -23t21.5 -23.5t3.5 -40.5v-100h-72q-36 0 -50 5t-38 26q-33 26 -33 51h-8q0 -26 -45 -51q-36 -23 -49.5 -27t-50.5 -4 h-277q-23 0 -43 7t-28.5 13.5t-26.5 20.5h-8v-573h-164z" />
<glyph unicode="&#xb6;" horiz-adv-x="1058" d="M123 885v536q0 32 24 52l27 22q25 21 49 21h361v-1885h-123v1160h-238q-25 0 -49 20l-27 23q-24 20 -24 51zM737 -369v1885h123v-1885h-123z" />
<glyph unicode="&#xb7;" horiz-adv-x="600" d="M147 637v78q0 48 3.5 60t25.5 32q17 17 29.5 19.5t70.5 2.5h48q57 0 69.5 -2.5t32.5 -19.5q19 -20 22 -32t3 -60v-78q0 -48 -3.5 -60t-25.5 -32q-17 -17 -29.5 -20t-66.5 -3h-50q-57 0 -70 3t-32 20q-20 20 -23.5 32t-3.5 60z" />
<glyph unicode="&#xb8;" horiz-adv-x="778" d="M195 -293h100v-18q0 -16 1.5 -21t10.5 -12t14.5 -8.5t24.5 -1.5h119q29 0 41 10q9 7 10.5 12t1.5 21v90q0 16 -1.5 21t-10.5 12t-14.5 8.5t-24.5 1.5h-43q-13 0 -23 -6l-20 -15h-100v199h100v-121q5 4 16 12t14.5 10.5t11 7t11 5.5t9.5 2.5t12 1.5h65q25 0 49 -20l25 -21 q24 -20 24 -51v-184q0 -32 -24 -52l-25 -20q-25 -21 -49 -21h-227q-24 0 -49 21l-25 20q-24 20 -24 52v65z" />
<glyph unicode="&#xb9;" horiz-adv-x="552" d="M109 1292l129 142h202v-738h-131v641l-116 -127z" />
<glyph unicode="&#xba;" horiz-adv-x="864" d="M123 803v536q0 32 24 52l27 22q25 21 49 21h418q26 0 51 -21l25 -22q24 -20 24 -52v-536q0 -31 -24 -51l-25 -23q-24 -20 -51 -20h-418q-25 0 -49 20l-27 23q-24 20 -24 51zM258 870q0 -18 1.5 -22.5t10.5 -11.5q15 -11 41 -11h244q26 0 39 11q9 7 10.5 11.5t1.5 22.5 v402q0 18 -1.5 23t-10.5 12t-14.5 8.5t-24.5 1.5h-244q-27 0 -41 -10q-9 -7 -10.5 -12t-1.5 -23v-402z" />
<glyph unicode="&#xbb;" horiz-adv-x="1069" d="M133 92l295 467l-295 467l109 82l340 -549l-340 -549zM487 92l295 467l-295 467l109 82l340 -549l-340 -549z" />
<glyph unicode="&#xbc;" horiz-adv-x="1574" d="M154 1292l84 -82l116 127v-641h131v738h-202zM156 -94l999 1560h150l-1008 -1560h-141zM817 154v94l336 479h152l-340 -461h225v185h123v-185h98v-112h-98v-154h-123v154h-373z" />
<glyph unicode="&#xbd;" horiz-adv-x="1589" d="M154 -94l999 1560h150l-1008 -1560h-141zM164 1292l84 -82l117 127v-641h131v738h-203zM913 563v72q0 17 4.5 29.5t8.5 17t14 12.5l27 21q1 1 8.5 6.5t12 8t13.5 5t19 2.5h291q27 0 55 -22l25 -21q28 -22 28 -59v-195q0 -18 -4.5 -28t-19.5 -23l-316 -248 q-16 -16 -16 -28h373v-113h-506v119q0 25 2.5 32.5t17.5 20.5l318 266q16 16 16 33v121q0 16 -10 24q-11 9 -33 9h-162q-21 0 -32 -9t-11 -24v-29h-123z" />
<glyph unicode="&#xbe;" horiz-adv-x="1675" d="M154 799v71h122v-30q0 -14 11 -23q10 -8 32 -8h193q18 0 31 8q10 7 10 23v131q0 14 -16 30l-15 13q-18 16 -41 16h-131v107h117q17 0 23.5 2.5t23.5 15.5q19 14 23 20.5t4 22.5v90q0 16 -11 25q-10 8 -30 8h-160q-23 0 -33 -8t-10 -25v-28h-123v71q0 37 27 60l24 20 q28 23 56 23h276q8 0 15 -1t13.5 -4.5t9 -5t9.5 -6.5t8 -6l23 -20q29 -25 29 -60v-162q0 -18 -4.5 -27t-18.5 -20l-18 -14q-15 -10 -31 -10v-8q20 0 31 -11l28 -28q18 -15 21.5 -23.5t3.5 -34.5v-194q0 -26 -4 -35.5t-17 -24.5l-18 -18q-25 -25 -55 -25h-320q-27 0 -55 23 l-27 20q-26 19 -26 60zM307 -94l1000 1560h149l-1007 -1560h-142zM969 154v94l336 479h151l-340 -461h225v185h123v-185h99v-112h-99v-154h-123v154h-372z" />
<glyph unicode="&#xbf;" horiz-adv-x="1089" d="M133 76q0 22 7 38.5t14.5 24.5t23.5 21l53 45q17 14 26.5 20.5t29.5 13.5t43 7h133q37 0 47 2.5t29 17.5q18 14 21 23t3 41v162h172v-205q0 -41 -12.5 -62.5t-36.5 -40.5l-49 -41q-18 -14 -26.5 -20.5t-28.5 -13.5t-43 -7h-133q-37 0 -47 -2.5t-29 -17.5 q-18 -15 -21.5 -23.5t-3.5 -40.5v-323q0 -31 3.5 -40t21.5 -24q19 -15 29 -17.5t47 -2.5h339q37 0 47 2.5t29 17.5q18 15 21.5 24t3.5 40v39h172v-82q0 -41 -12.5 -62.5t-36.5 -40.5l-49 -41q-17 -13 -27 -20t-29.5 -13.5t-42.5 -6.5h-491q-23 0 -42.5 6.5t-29.5 13.5 t-27 20l-49 41q-16 13 -24.5 22.5t-16.5 30.5t-8 50v424zM563 780v47q0 31 2.5 39.5t16.5 20.5q10 10 18.5 12t42.5 2h10q36 0 45 -2t21 -12q12 -12 14 -20.5t2 -39.5v-47q0 -31 -2.5 -39t-15.5 -20q-10 -10 -19 -12t-45 -2h-8q-36 0 -44.5 2t-20.5 12q-12 12 -14.5 20.5 t-2.5 38.5z" />
<glyph unicode="&#xc0;" horiz-adv-x="1439" d="M102 0l492 1434h242l501 -1434h-172l-106 297h-682l-103 -297h-172zM420 430h596l-283 821q-14 35 -14 60h-8q0 -22 -15 -60zM471 1647l68 135l331 -199l-39 -82z" />
<glyph unicode="&#xc1;" horiz-adv-x="1439" d="M102 0l492 1434h242l501 -1434h-172l-106 297h-682l-103 -297h-172zM420 430h596l-283 821q-14 35 -14 60h-8q0 -22 -15 -60zM553 1583l332 199l67 -135l-360 -146z" />
<glyph unicode="&#xc2;" horiz-adv-x="1439" d="M102 0l492 1434h242l501 -1434h-172l-106 297h-682l-103 -297h-172zM420 430h596l-283 821q-14 35 -14 60h-8q0 -22 -15 -60zM453 1602l211 180h108l211 -180l-53 -70l-207 127h-8l-209 -127z" />
<glyph unicode="&#xc3;" horiz-adv-x="1439" d="M102 0l492 1434h242l501 -1434h-172l-106 297h-682l-103 -297h-172zM408 1642l161 80q22 13 49 13q29 0 107.5 -35t97.5 -35q12 0 27 6l127 66l55 -105l-162 -82q-20 -12 -49 -12q-35 0 -108 36t-95 36q-13 0 -21 -3t-38 -18l-96 -51zM420 430h596l-283 821 q-14 35 -14 60h-8q0 -22 -15 -60z" />
<glyph unicode="&#xc4;" horiz-adv-x="1439" d="M102 0l492 1434h242l501 -1434h-172l-106 297h-682l-103 -297h-172zM420 430h596l-283 821q-14 35 -14 60h-8q0 -22 -15 -60zM451 1634v17q0 33 3 42t17 25q12 14 22.5 16.5t51.5 2.5q46 0 59.5 -3t26.5 -16q12 -10 14 -19t2 -48v-17q0 -39 -2.5 -48t-15.5 -19 q-13 -13 -25 -16t-49 -3h-10q-37 0 -48.5 3t-25.5 16q-14 12 -17 22.5t-3 44.5zM791 1634v17q0 33 3 42t17 25q12 14 22.5 16.5t51.5 2.5q46 0 59.5 -3t26.5 -16q12 -10 14 -19t2 -48v-17q0 -39 -2.5 -48t-15.5 -19q-13 -13 -25 -16t-49 -3h-10q-37 0 -48.5 3t-25.5 16 q-14 12 -17 22.5t-3 44.5z" />
<glyph unicode="&#xc5;" horiz-adv-x="1439" d="M102 0l492 1434h242l501 -1434h-172l-106 297h-682l-103 -297h-172zM420 430h596l-283 821q-14 35 -14 60h-8q0 -22 -15 -60zM526 1651v100q0 48 3.5 60t25.5 32q17 17 30 20t70 3h127q58 0 71 -3t30 -20q21 -20 24.5 -31.5t3.5 -60.5v-100q0 -49 -3.5 -60.5t-24.5 -31.5 q-17 -17 -30 -20t-71 -3h-127q-57 0 -70 3t-30 20q-22 20 -25.5 32t-3.5 60zM614 1679q0 -23 2 -29t11 -14q2 -1 4 -3t3.5 -2.5t3 -2t3 -2t3.5 -1t4 -0.5t5.5 -0.5t7.5 -0.5h9h98q8 0 13 0.5t8.5 0.5t6.5 1.5l4 2t5.5 3.5t5.5 4q9 7 10.5 13t1.5 30v43q0 24 -1.5 30 t-10.5 13q-2 1 -6.5 5t-6 4.5l-6 2t-10 1.5h-14.5h-98h-14.5t-10 -1.5l-6 -2t-6 -4.5t-6.5 -5q-9 -8 -11 -14t-2 -29v-43z" />
<glyph unicode="&#xc6;" horiz-adv-x="1849" d="M51 0l522 1434h1123v-144h-684v-491h569v-144h-569v-512h684v-143h-856v297h-496l-102 -297h-191zM387 430h453v860h-152z" />
<glyph unicode="&#xc7;" horiz-adv-x="1357" d="M205 184v1065q0 41 12.5 62.5t36.5 40.5l49 41q18 14 26.5 20.5t28.5 13.5t43 7h660q23 0 43 -7t28.5 -13.5t26.5 -20.5l49 -41q16 -13 24.5 -22.5t16.5 -30.5t8 -50v-82h-172v39q0 32 -3 41t-21 23q-19 15 -29 17.5t-47 2.5h-508q-37 0 -47 -2.5t-29 -17.5 q-18 -14 -21 -23t-3 -41v-979q0 -32 3 -40t21 -23q19 -15 29.5 -18t46.5 -3h508q36 0 46.5 3t29.5 18q18 15 21 23t3 40v39h172v-82q0 -29 -8 -49.5t-16.5 -30t-24.5 -22.5l-49 -41q-18 -14 -26.5 -20.5t-28.5 -13.5t-43 -7h-264v-121q6 4 16 12t14 10.5t10.5 7t11 6t10 2.5 t11.5 1h66q25 0 49 -20l25 -21q24 -20 24 -51v-184q0 -32 -24 -52l-25 -20q-25 -21 -49 -21h-227q-25 0 -50 21l-24 20q-25 21 -25 52v65h101v-18q0 -16 1.5 -21t10.5 -12t14.5 -8.5t24.5 -1.5h119q29 0 41 10q9 7 10.5 12t1.5 21v90q0 16 -1.5 21t-10.5 12t-14.5 8.5 t-24.5 1.5h-43q-13 0 -23 -6l-20 -15h-101v199h-295q-23 0 -43 7t-28.5 13.5t-26.5 20.5l-49 41q-16 13 -24.5 22.5t-16.5 30t-8 49.5z" />
<glyph unicode="&#xc8;" horiz-adv-x="1275" d="M205 0v1434h917v-144h-745v-491h631v-144h-631v-512h745v-143h-917zM430 1647l68 135l331 -199l-38 -82z" />
<glyph unicode="&#xc9;" horiz-adv-x="1275" d="M205 0v1434h917v-144h-745v-491h631v-144h-631v-512h745v-143h-917zM512 1583l332 199l67 -135l-360 -146z" />
<glyph unicode="&#xca;" horiz-adv-x="1275" d="M205 0v1434h917v-144h-745v-491h631v-144h-631v-512h745v-143h-917zM426 1602l211 180h108l211 -180l-53 -70l-207 127h-8l-209 -127z" />
<glyph unicode="&#xcb;" horiz-adv-x="1275" d="M205 0v1434h917v-144h-745v-491h631v-144h-631v-512h745v-143h-917zM410 1634v17q0 33 3 42t17 25q12 14 22.5 16.5t51.5 2.5q46 0 59.5 -3t26.5 -16q12 -10 14 -19t2 -48v-17q0 -39 -2.5 -48t-15.5 -19q-13 -13 -25 -16t-49 -3h-10q-37 0 -48.5 3t-25.5 16 q-14 12 -17 22.5t-3 44.5zM750 1634v17q0 33 3 42t17 25q12 14 22.5 16.5t51.5 2.5q46 0 59.5 -3t26.5 -16q12 -10 14 -19t2 -48v-17q0 -39 -2.5 -48t-15.5 -19q-13 -13 -25 -16t-49 -3h-10q-37 0 -48.5 3t-25.5 16q-14 12 -17 22.5t-3 44.5z" />
<glyph unicode="&#xcc;" horiz-adv-x="581" d="M2 1647l68 135l331 -199l-39 -82zM205 0v1434h172v-1434h-172z" />
<glyph unicode="&#xcd;" horiz-adv-x="581" d="M160 1583l332 199l67 -135l-360 -146zM205 0v1434h172v-1434h-172z" />
<glyph unicode="&#xce;" horiz-adv-x="581" d="M23 1602l210 180h109l211 -180l-53 -70l-207 127h-8l-209 -127zM205 0h172v1434h-172v-1434z" />
<glyph unicode="&#xcf;" horiz-adv-x="581" d="M23 1634v17q0 33 3 42t17 25q12 14 22.5 16.5t51.5 2.5q46 0 59.5 -3t26.5 -16q12 -10 14 -19t2 -48v-17q0 -39 -2.5 -48t-15.5 -19q-13 -13 -25 -16t-49 -3h-10q-37 0 -48.5 3t-25.5 16q-14 12 -17 22.5t-3 44.5zM205 0v1434h172v-1434h-172zM362 1634v17q0 32 3.5 41.5 t17.5 25.5q12 14 22.5 16.5t51.5 2.5q46 0 59.5 -3t26.5 -16q12 -10 14 -19t2 -48v-17q0 -39 -2.5 -48t-15.5 -19q-13 -13 -25 -16t-49 -3h-10q-37 0 -48.5 3t-25.5 16q-14 12 -17.5 23t-3.5 44z" />
<glyph unicode="&#xd0;" horiz-adv-x="1527" d="M31 655v133h188v646h758q34 0 54 -9t44 -32l197 -164q18 -15 26 -23t15.5 -24t7.5 -35v-860q0 -19 -7.5 -35t-15.5 -24t-26 -23l-197 -164q-24 -23 -44 -32t-54 -9h-758v655h-188zM391 143h512q34 0 54 9t44 32l99 82q18 15 26 23t15.5 24t7.5 35v737q0 19 -7.5 35 t-15.5 24t-26 23l-99 82q-24 23 -44 32t-54 9h-512v-502h340v-133h-340v-512z" />
<glyph unicode="&#xd1;" horiz-adv-x="1495" d="M205 0v1434h172l749 -1168l7 2q-1 5 -4.5 15.5t-4 13.5t-2.5 11.5t-2.5 15.5t-1 18t-0.5 25v1067h172v-1434h-172l-749 1151l-7 -2q2 -5 4.5 -15t3.5 -13.5t3 -12t2.5 -15t1 -17.5t0.5 -25v-1051h-172zM475 1642l162 80q22 13 49 13q29 0 107.5 -35t97.5 -35q12 0 27 6 l126 66l56 -105l-162 -82q-20 -12 -49 -12q-35 0 -108 36t-95 36q-13 0 -21 -3t-38 -18l-97 -51z" />
<glyph unicode="&#xd2;" horiz-adv-x="1552" d="M135 184v1065q0 41 12.5 62.5t36.5 40.5l49 41q17 14 26.5 20.5t29.5 13.5t43 7h749q23 0 43 -7t29.5 -13.5t26.5 -20.5l49 -41q16 -13 24.5 -22.5t16.5 -30.5t8 -50v-1065q0 -29 -8 -49.5t-16.5 -30t-24.5 -22.5l-49 -41q-17 -14 -26.5 -20.5t-29.5 -13.5t-43 -7h-749 q-23 0 -43 7t-29.5 13.5t-26.5 20.5l-49 41q-16 13 -24.5 22.5t-16.5 30t-8 49.5zM307 227q0 -31 3.5 -39.5t21.5 -23.5q19 -15 29.5 -18t46.5 -3h598q36 0 46 3t29 18q18 15 21.5 23.5t3.5 39.5v979q0 32 -3.5 40.5t-21.5 23.5q-19 15 -28.5 17.5t-46.5 2.5h-598 q-37 0 -47 -2.5t-29 -17.5q-18 -15 -21.5 -23.5t-3.5 -40.5v-979zM494 1647l67 135l332 -199l-39 -82z" />
<glyph unicode="&#xd3;" horiz-adv-x="1552" d="M135 184v1065q0 41 12.5 62.5t36.5 40.5l49 41q17 14 26.5 20.5t29.5 13.5t43 7h749q23 0 43 -7t29.5 -13.5t26.5 -20.5l49 -41q16 -13 24.5 -22.5t16.5 -30.5t8 -50v-1065q0 -29 -8 -49.5t-16.5 -30t-24.5 -22.5l-49 -41q-17 -14 -26.5 -20.5t-29.5 -13.5t-43 -7h-749 q-23 0 -43 7t-29.5 13.5t-26.5 20.5l-49 41q-16 13 -24.5 22.5t-16.5 30t-8 49.5zM307 227q0 -31 3.5 -39.5t21.5 -23.5q19 -15 29.5 -18t46.5 -3h598q36 0 46 3t29 18q18 15 21.5 23.5t3.5 39.5v979q0 32 -3.5 40.5t-21.5 23.5q-19 15 -28.5 17.5t-46.5 2.5h-598 q-37 0 -47 -2.5t-29 -17.5q-18 -15 -21.5 -23.5t-3.5 -40.5v-979zM596 1583l332 199l67 -135l-360 -146z" />
<glyph unicode="&#xd4;" horiz-adv-x="1552" d="M135 184q0 -29 8 -49.5t16.5 -30t24.5 -22.5l49 -41q17 -14 26.5 -20.5t29.5 -13.5t43 -7h749q23 0 43 7t29.5 13.5t26.5 20.5l49 41q16 13 24.5 22.5t16.5 30t8 49.5v1065q0 41 -12.5 62.5t-36.5 40.5l-49 41q-17 14 -26.5 20.5t-29.5 13.5t-43 7h-749q-23 0 -43 -7 t-29.5 -13.5t-26.5 -20.5l-49 -41q-16 -13 -24.5 -22.5t-16.5 -30.5t-8 -50v-1065zM307 227v979q0 32 3.5 40.5t21.5 23.5q19 15 29 17.5t47 2.5h598q37 0 46.5 -2.5t28.5 -17.5q18 -15 21.5 -23.5t3.5 -40.5v-979q0 -31 -3.5 -39.5t-21.5 -23.5q-19 -15 -29 -18t-46 -3 h-598q-36 0 -46.5 3t-29.5 18q-18 15 -21.5 23.5t-3.5 39.5zM469 1602l211 180h108l211 -180l-53 -70l-207 127h-8l-209 -127z" />
<glyph unicode="&#xd5;" horiz-adv-x="1552" d="M135 184q0 -29 8 -49.5t16.5 -30t24.5 -22.5l49 -41q17 -14 26.5 -20.5t29.5 -13.5t43 -7h749q23 0 43 7t29.5 13.5t26.5 20.5l49 41q16 13 24.5 22.5t16.5 30t8 49.5v1065q0 41 -12.5 62.5t-36.5 40.5l-49 41q-17 14 -26.5 20.5t-29.5 13.5t-43 7h-749q-23 0 -43 -7 t-29.5 -13.5t-26.5 -20.5l-49 -41q-16 -13 -24.5 -22.5t-16.5 -30.5t-8 -50v-1065zM307 227v979q0 32 3.5 40.5t21.5 23.5q19 15 29 17.5t47 2.5h598q37 0 46.5 -2.5t28.5 -17.5q18 -15 21.5 -23.5t3.5 -40.5v-979q0 -31 -3.5 -39.5t-21.5 -23.5q-19 -15 -29 -18t-46 -3 h-598q-36 0 -46.5 3t-29.5 18q-18 15 -21.5 23.5t-3.5 39.5zM442 1642l162 80q22 13 49 13q29 0 107.5 -35t97.5 -35q12 0 27 6l127 66l55 -105l-162 -82q-20 -12 -49 -12q-35 0 -108 36t-95 36q-13 0 -21 -3t-38 -18l-96 -51z" />
<glyph unicode="&#xd6;" horiz-adv-x="1552" d="M135 184v1065q0 41 12.5 62.5t36.5 40.5l49 41q17 14 26.5 20.5t29.5 13.5t43 7h749q23 0 43 -7t29.5 -13.5t26.5 -20.5l49 -41q16 -13 24.5 -22.5t16.5 -30.5t8 -50v-1065q0 -29 -8 -49.5t-16.5 -30t-24.5 -22.5l-49 -41q-17 -14 -26.5 -20.5t-29.5 -13.5t-43 -7h-749 q-23 0 -43 7t-29.5 13.5t-26.5 20.5l-49 41q-16 13 -24.5 22.5t-16.5 30t-8 49.5zM307 227q0 -31 3.5 -39.5t21.5 -23.5q19 -15 29.5 -18t46.5 -3h598q36 0 46 3t29 18q18 15 21.5 23.5t3.5 39.5v979q0 32 -3.5 40.5t-21.5 23.5q-19 15 -28.5 17.5t-46.5 2.5h-598 q-37 0 -47 -2.5t-29 -17.5q-18 -15 -21.5 -23.5t-3.5 -40.5v-979zM459 1634v17q0 33 3 42t17 25q12 14 22.5 16.5t51.5 2.5q46 0 59.5 -3t26.5 -16q12 -10 14 -19t2 -48v-17q0 -39 -2.5 -48t-15.5 -19q-13 -13 -25 -16t-49 -3h-10q-37 0 -48.5 3t-25.5 16q-14 12 -17 22.5 t-3 44.5zM799 1634v17q0 33 3 42t17 25q12 14 22.5 16.5t51.5 2.5q46 0 59.5 -3t26.5 -16q12 -10 14 -19t2 -48v-17q0 -39 -2.5 -48t-15.5 -19q-13 -13 -25 -16t-49 -3h-10q-37 0 -48.5 3t-25.5 16q-14 12 -17 22.5t-3 44.5z" />
<glyph unicode="&#xd7;" horiz-adv-x="1101" d="M201 922l94 94l256 -256l256 256l94 -94l-256 -256l254 -254l-94 -95l-254 254l-254 -254l-94 95l254 254z" />
<glyph unicode="&#xd8;" horiz-adv-x="1613" d="M182 -102l107 153l-35 31q-16 13 -24.5 22.5t-16.5 30t-8 49.5v1065q0 41 12.5 62.5t36.5 40.5l49 41q18 14 26.5 20.5t28.5 13.5t43 7h750q19 0 27 -2l73 104h131l-112 -162l28 -22q16 -13 25 -22.5t17 -30.5t8 -50v-1065q0 -28 -8 -49.5t-17 -30.5t-25 -22l-49 -41 q-18 -14 -26.5 -20.5t-28.5 -13.5t-43 -7h-750q-16 0 -24 2l-72 -104h-123zM377 227q0 -35 4 -43l700 1106h-604q-37 0 -47 -2.5t-29 -17.5q-18 -14 -21 -23t-3 -41v-979zM475 143h600q36 0 46.5 3t29.5 18q18 15 21.5 23.5t3.5 39.5v979q0 23 -2 31z" />
<glyph unicode="&#xd9;" horiz-adv-x="1499" d="M205 184v1250h172v-1207q0 -32 3 -40t21 -23q19 -15 29.5 -18t46.5 -3h545q36 0 46.5 3t29.5 18q18 15 21 23t3 40v1207h172v-1250q0 -29 -8 -49.5t-16.5 -30t-24.5 -22.5l-49 -41q-18 -14 -26.5 -20.5t-28.5 -13.5t-43 -7h-697q-23 0 -43 7t-28.5 13.5t-26.5 20.5 l-49 41q-16 13 -24.5 22.5t-16.5 30t-8 49.5zM502 1647l67 135l332 -199l-39 -82z" />
<glyph unicode="&#xda;" horiz-adv-x="1499" d="M205 184v1250h172v-1207q0 -32 3 -40t21 -23q19 -15 29.5 -18t46.5 -3h545q36 0 46.5 3t29.5 18q18 15 21 23t3 40v1207h172v-1250q0 -29 -8 -49.5t-16.5 -30t-24.5 -22.5l-49 -41q-18 -14 -26.5 -20.5t-28.5 -13.5t-43 -7h-697q-23 0 -43 7t-28.5 13.5t-26.5 20.5 l-49 41q-16 13 -24.5 22.5t-16.5 30t-8 49.5zM604 1583l332 199l68 -135l-361 -146z" />
<glyph unicode="&#xdb;" horiz-adv-x="1499" d="M205 184q0 -29 8 -49.5t16.5 -30t24.5 -22.5l49 -41q18 -14 26.5 -20.5t28.5 -13.5t43 -7h697q23 0 43 7t28.5 13.5t26.5 20.5l49 41q16 13 24.5 22.5t16.5 30t8 49.5v1250h-172v-1207q0 -32 -3 -40t-21 -23q-19 -15 -29.5 -18t-46.5 -3h-545q-36 0 -46.5 3t-29.5 18 q-18 15 -21 23t-3 40v1207h-172v-1250zM481 1602l211 180h109l211 -180l-54 -70l-206 127h-9l-208 -127z" />
<glyph unicode="&#xdc;" horiz-adv-x="1499" d="M205 184v1250h172v-1207q0 -32 3 -40t21 -23q19 -15 29.5 -18t46.5 -3h545q36 0 46.5 3t29.5 18q18 15 21 23t3 40v1207h172v-1250q0 -29 -8 -49.5t-16.5 -30t-24.5 -22.5l-49 -41q-18 -14 -26.5 -20.5t-28.5 -13.5t-43 -7h-697q-23 0 -43 7t-28.5 13.5t-26.5 20.5 l-49 41q-16 13 -24.5 22.5t-16.5 30t-8 49.5zM498 1634v17q0 33 3 42t17 25q12 14 22.5 16.5t51.5 2.5q46 0 59.5 -3t26.5 -16q12 -10 14 -19t2 -48v-17q0 -39 -2.5 -48t-15.5 -19q-13 -13 -25 -16t-49 -3h-10q-37 0 -48.5 3t-25.5 16q-14 12 -17 22.5t-3 44.5zM838 1634v17 q0 33 3 42t17 25q12 14 22.5 16.5t51.5 2.5q46 0 59.5 -3t26.5 -16q12 -10 14 -19t2 -48v-17q0 -39 -2.5 -48t-15.5 -19q-13 -13 -25 -16t-49 -3h-10q-37 0 -48.5 3t-25.5 16q-14 12 -17 22.5t-3 44.5z" />
<glyph unicode="&#xdd;" horiz-adv-x="1118" d="M2 1434h197l329 -627q25 -44 27 -64h8q1 12 27 64l330 627h196l-471 -836v-598h-172v598zM414 1563l331 198l68 -135l-360 -145z" />
<glyph unicode="&#xde;" horiz-adv-x="1312" d="M205 0v1434h172v-226h586q23 0 43 -7t28.5 -13.5t26.5 -20.5l49 -41q16 -13 24.5 -22.5t16.5 -30t8 -49.5v-492q0 -29 -8 -49.5t-16.5 -30t-24.5 -22.5l-49 -41q-18 -14 -26.5 -20.5t-28.5 -13.5t-43 -7h-586v-348h-172zM377 492h510q37 0 47 2.5t29 17.5q18 15 21 23 t3 40v406q0 32 -3 40t-21 23q-19 15 -29.5 18t-46.5 3h-510v-573z" />
<glyph unicode="&#xdf;" horiz-adv-x="1142" d="M123 -532v1781q0 41 12.5 62.5t36.5 40.5l49 41q18 14 26.5 20.5t28.5 13.5t43 7h480q23 0 43 -7t28.5 -13.5t26.5 -20.5l49 -41q16 -13 24.5 -22.5t16.5 -30.5t8 -50v-348q0 -29 -8 -49.5t-16.5 -30t-24.5 -22.5l-22 -19q-10 -8 -28.5 -17t-29.5 -9v-11q11 0 29.5 -9 t28.5 -17l47 -41q16 -13 24.5 -22.5t16.5 -30.5t8 -50v-389q0 -28 -7 -49.5t-14 -30.5t-20 -22l-41 -41q-37 -41 -90 -41h-442v143h342q36 0 46 3t29 18q18 15 21.5 23.5t3.5 39.5v324q0 23 -7 40t-14.5 25t-23.5 21q-17 14 -44.5 24.5t-45.5 10.5h-307v131h280q22 0 40 5.5 t25 10t25 17.5q30 25 38.5 39t8.5 49v282q0 32 -3 41t-21 23q-19 15 -29 17.5t-47 2.5h-328q-37 0 -47 -2.5t-29 -17.5q-18 -14 -21 -23t-3 -41v-1738h-172z" />
<glyph unicode="&#xe0;" horiz-adv-x="1159" d="M143 184v246q0 28 8 49.5t17 30.5t25 22l49 41q18 14 26.5 20.5t28.5 13.5t43 7h367q39 0 48.5 -2.5t26.5 -17.5q18 -14 21.5 -20.5t3.5 -20.5h8v244q0 32 -3 40t-21 23q-19 15 -29.5 18t-46.5 3h-332q-37 0 -50.5 -5.5t-49.5 -35.5l-123 102l49 41q36 30 49.5 35.5 t50.5 5.5h482q23 0 43 -7t28.5 -13.5t26.5 -20.5l49 -41q16 -13 24.5 -22.5t16.5 -30t8 -49.5v-613q0 -31 3.5 -39.5t21.5 -23.5q18 -14 21 -23t3 -41v-100h-71q-36 0 -50 5t-38 26q-33 26 -33 51h-8q0 -26 -45 -51q-36 -23 -49.5 -27t-51.5 -4h-350q-23 0 -43 7t-28.5 13.5 t-26.5 20.5l-49 41q-16 13 -25 22t-17 30.5t-8 49.5zM315 227q0 -31 3.5 -39.5t21.5 -23.5q19 -15 29.5 -18t46.5 -3h250q37 0 50.5 4t49.5 27t42.5 33t6.5 41v139q0 32 -3 41t-21 23q-19 15 -29 17.5t-47 2.5h-299q-37 0 -47 -2.5t-29 -17.5q-18 -15 -21.5 -24t-3.5 -40 v-160zM334 1323l88 129l280 -244l-53 -82z" />
<glyph unicode="&#xe1;" horiz-adv-x="1159" d="M143 184v246q0 28 8 49.5t17 30.5t25 22l49 41q18 14 26.5 20.5t28.5 13.5t43 7h367q39 0 48.5 -2.5t26.5 -17.5q18 -14 21.5 -20.5t3.5 -20.5h8v244q0 32 -3 40t-21 23q-19 15 -29.5 18t-46.5 3h-332q-37 0 -50.5 -5.5t-49.5 -35.5l-123 102l49 41q36 30 49.5 35.5 t50.5 5.5h482q23 0 43 -7t28.5 -13.5t26.5 -20.5l49 -41q16 -13 24.5 -22.5t16.5 -30t8 -49.5v-613q0 -31 3.5 -39.5t21.5 -23.5q18 -14 21 -23t3 -41v-100h-71q-36 0 -50 5t-38 26q-33 26 -33 51h-8q0 -26 -45 -51q-36 -23 -49.5 -27t-51.5 -4h-350q-23 0 -43 7t-28.5 13.5 t-26.5 20.5l-49 41q-16 13 -25 22t-17 30.5t-8 49.5zM315 227q0 -31 3.5 -39.5t21.5 -23.5q19 -15 29.5 -18t46.5 -3h250q37 0 50.5 4t49.5 27t42.5 33t6.5 41v139q0 32 -3 41t-21 23q-19 15 -29 17.5t-47 2.5h-299q-37 0 -47 -2.5t-29 -17.5q-18 -15 -21.5 -24t-3.5 -40 v-160zM436 1208l281 244l88 -129l-316 -197z" />
<glyph unicode="&#xe2;" horiz-adv-x="1159" d="M143 184v246q0 28 8 49.5t17 30.5t25 22l49 41q18 14 26.5 20.5t28.5 13.5t43 7h367q39 0 48.5 -2.5t26.5 -17.5q18 -14 21.5 -20.5t3.5 -20.5h8v244q0 32 -3 40t-21 23q-19 15 -29.5 18t-46.5 3h-332q-37 0 -50.5 -5.5t-49.5 -35.5l-123 102l49 41q36 30 49.5 35.5 t50.5 5.5h482q23 0 43 -7t28.5 -13.5t26.5 -20.5l49 -41q16 -13 24.5 -22.5t16.5 -30t8 -49.5v-613q0 -31 3.5 -39.5t21.5 -23.5q18 -14 21 -23t3 -41v-100h-71q-36 0 -50 5t-38 26q-33 26 -33 51h-8q0 -26 -45 -51q-36 -23 -49.5 -27t-51.5 -4h-350q-23 0 -43 7t-28.5 13.5 t-26.5 20.5l-49 41q-16 13 -25 22t-17 30.5t-8 49.5zM315 227q0 -31 3.5 -39.5t21.5 -23.5q19 -15 29.5 -18t46.5 -3h250q37 0 50.5 4t49.5 27t42.5 33t6.5 41v139q0 32 -3 41t-21 23q-19 15 -29 17.5t-47 2.5h-299q-37 0 -47 -2.5t-29 -17.5q-18 -15 -21.5 -24t-3.5 -40 v-160zM324 1200l198 234h109l203 -234l-123 -39l-119 144q-10 13 -10 24h-9q0 -11 -10 -24l-119 -144z" />
<glyph unicode="&#xe3;" horiz-adv-x="1159" d="M143 184v246q0 28 8 49.5t17 30.5t25 22l49 41q18 14 26.5 20.5t28.5 13.5t43 7h367q39 0 48.5 -2.5t26.5 -17.5q18 -14 21.5 -20.5t3.5 -20.5h8v244q0 32 -3 40t-21 23q-19 15 -29.5 18t-46.5 3h-332q-37 0 -50.5 -5.5t-49.5 -35.5l-123 102l49 41q36 30 49.5 35.5 t50.5 5.5h482q23 0 43 -7t28.5 -13.5t26.5 -20.5l49 -41q16 -13 24.5 -22.5t16.5 -30t8 -49.5v-613q0 -31 3.5 -39.5t21.5 -23.5q18 -14 21 -23t3 -41v-100h-71q-36 0 -50 5t-38 26q-33 26 -33 51h-8q0 -26 -45 -51q-36 -23 -49.5 -27t-51.5 -4h-350q-23 0 -43 7t-28.5 13.5 t-26.5 20.5l-49 41q-16 13 -25 22t-17 30.5t-8 49.5zM266 1253l162 80q22 13 49 13q29 0 107.5 -35t97.5 -35q12 0 27 6l127 66l55 -105l-162 -82q-20 -12 -49 -12q-35 0 -108 36t-95 36q-13 0 -21 -3t-38 -18l-96 -51zM315 227q0 -31 3.5 -39.5t21.5 -23.5q19 -15 29.5 -18 t46.5 -3h250q37 0 50.5 4t49.5 27t42.5 33t6.5 41v139q0 32 -3 41t-21 23q-19 15 -29 17.5t-47 2.5h-299q-37 0 -47 -2.5t-29 -17.5q-18 -15 -21.5 -24t-3.5 -40v-160z" />
<glyph unicode="&#xe4;" horiz-adv-x="1159" d="M143 184v246q0 28 8 49.5t17 30.5t25 22l49 41q18 14 26.5 20.5t28.5 13.5t43 7h367q39 0 48.5 -2.5t26.5 -17.5q18 -14 21.5 -20.5t3.5 -20.5h8v244q0 32 -3 40t-21 23q-19 15 -29.5 18t-46.5 3h-332q-37 0 -50.5 -5.5t-49.5 -35.5l-123 102l49 41q36 30 49.5 35.5 t50.5 5.5h482q23 0 43 -7t28.5 -13.5t26.5 -20.5l49 -41q16 -13 24.5 -22.5t16.5 -30t8 -49.5v-613q0 -31 3.5 -39.5t21.5 -23.5q18 -14 21 -23t3 -41v-100h-71q-36 0 -50 5t-38 26q-33 26 -33 51h-8q0 -26 -45 -51q-36 -23 -49.5 -27t-51.5 -4h-350q-23 0 -43 7t-28.5 13.5 t-26.5 20.5l-49 41q-16 13 -25 22t-17 30.5t-8 49.5zM315 227q0 -31 3.5 -39.5t21.5 -23.5q19 -15 29.5 -18t46.5 -3h250q37 0 50.5 4t49.5 27t42.5 33t6.5 41v139q0 32 -3 41t-21 23q-19 15 -29 17.5t-47 2.5h-299q-37 0 -47 -2.5t-29 -17.5q-18 -15 -21.5 -24t-3.5 -40 v-160zM317 1286v17q0 32 3.5 41.5t17.5 25.5q12 14 22.5 16.5t51.5 2.5q46 0 59.5 -3t26.5 -16q12 -10 14 -19t2 -48v-17q0 -39 -2.5 -48t-15.5 -19q-13 -13 -25 -16t-49 -3h-10q-37 0 -48.5 3t-25.5 16q-14 12 -17.5 23t-3.5 44zM645 1286v17q0 32 3.5 41.5t17.5 25.5 q12 14 22 16.5t51 2.5q46 0 59.5 -3t26.5 -16q12 -11 14.5 -20t2.5 -47v-17q0 -38 -2.5 -47t-16.5 -20q-13 -13 -24.5 -16t-48.5 -3h-11q-37 0 -48 3t-25 16q-14 12 -17.5 23t-3.5 44z" />
<glyph unicode="&#xe5;" horiz-adv-x="1159" d="M143 184v246q0 28 8 49.5t17 30.5t25 22l49 41q18 14 26.5 20.5t28.5 13.5t43 7h367q39 0 48.5 -2.5t26.5 -17.5q18 -14 21.5 -20.5t3.5 -20.5h8v244q0 32 -3 40t-21 23q-19 15 -29.5 18t-46.5 3h-332q-37 0 -50.5 -5.5t-49.5 -35.5l-123 102l49 41q36 30 49.5 35.5 t50.5 5.5h482q23 0 43 -7t28.5 -13.5t26.5 -20.5l49 -41q16 -13 24.5 -22.5t16.5 -30t8 -49.5v-613q0 -31 3.5 -39.5t21.5 -23.5q18 -14 21 -23t3 -41v-100h-71q-36 0 -50 5t-38 26q-33 26 -33 51h-8q0 -26 -45 -51q-36 -23 -49.5 -27t-51.5 -4h-350q-23 0 -43 7t-28.5 13.5 t-26.5 20.5l-49 41q-16 13 -25 22t-17 30.5t-8 49.5zM315 227q0 -31 3.5 -39.5t21.5 -23.5q19 -15 29.5 -18t46.5 -3h250q37 0 50.5 4t49.5 27t42.5 33t6.5 41v139q0 32 -3 41t-21 23q-19 15 -29 17.5t-47 2.5h-299q-37 0 -47 -2.5t-29 -17.5q-18 -15 -21.5 -24t-3.5 -40 v-160zM387 1241v100q0 48 4 60.5t25 32.5q17 17 29.5 19.5t70.5 2.5h127q58 0 70.5 -2.5t29.5 -19.5q21 -20 25 -32.5t4 -60.5v-100q0 -48 -3.5 -60t-25.5 -32q-17 -17 -30 -20t-70 -3h-127q-57 0 -70 3t-30 20q-22 20 -25.5 32t-3.5 60zM475 1270q0 -24 1.5 -30t10.5 -13 q2 -1 6.5 -5t6 -4.5l6 -2t10 -1.5h14.5h99h14.5t10 1.5l6 2t6 4.5t6.5 5q9 7 10.5 13t1.5 30v43q0 24 -1.5 30t-10.5 13q-2 1 -4 3t-3.5 2.5t-3 2t-3 2t-3.5 1t-4 0.5t-5.5 0.5t-7.5 0.5h-9h-99q-8 0 -13 -0.5t-8.5 -0.5t-6.5 -1.5l-4 -2t-5.5 -3.5t-5.5 -4q-9 -7 -10.5 -13 t-1.5 -30v-43z" />
<glyph unicode="&#xe6;" horiz-adv-x="1810" d="M143 184v246q0 28 8 49.5t17 30.5t25 22l49 41q18 14 26.5 20.5t28.5 13.5t43 7h367q39 0 48.5 -2.5t26.5 -17.5q24 -24 25 -31h8v234q0 32 -3 40t-21 23q-19 15 -29.5 18t-46.5 3h-332q-37 0 -50.5 -5.5t-49.5 -35.5l-123 102l49 41q36 30 49.5 35.5t50.5 5.5h482 q62 0 98 -45l8 -10h8l8 10q36 45 99 45h477q39 0 98 -41l51 -41q25 -18 37.5 -39.5t12.5 -62.5v-420h-701v-193q0 -31 3.5 -39.5t21.5 -23.5q19 -15 29 -18t46 -3h398q37 0 50.5 5.5t49.5 35.5l123 -102l-49 -41q-36 -30 -49.5 -35.5t-50.5 -5.5h-547q-23 0 -43 7 t-29.5 13.5t-26.5 20.5l-49 43h-8q-44 -39 -65 -53q-34 -23 -48.5 -27t-52.5 -4h-350q-23 0 -43 7t-28.5 13.5t-26.5 20.5l-49 41q-16 13 -25 22t-17 30.5t-8 49.5zM315 227q0 -31 3.5 -39.5t21.5 -23.5q19 -15 29.5 -18t46.5 -3h250q37 0 50.5 4t49.5 27q31 20 39.5 28.5 t9.5 24.5v160q0 32 -3 41t-21 23q-19 15 -29 17.5t-47 2.5h-299q-37 0 -47 -2.5t-29 -17.5q-18 -15 -21.5 -24t-3.5 -40v-160zM987 553h529v244q0 31 -3.5 39.5t-21.5 23.5q-19 15 -29.5 18t-46.5 3h-328q-36 0 -46 -3t-29 -18q-18 -15 -21.5 -23.5t-3.5 -39.5v-244z" />
<glyph unicode="&#xe7;" horiz-adv-x="1054" d="M123 184v656q0 29 8 49.5t16.5 30t24.5 22.5l49 41q18 14 26.5 20.5t28.5 13.5t43 7h426q23 0 43 -7t29.5 -13.5t26.5 -20.5l49 -41q16 -13 24.5 -22.5t16.5 -30t8 -49.5v-82h-172v39q0 31 -3.5 39.5t-21.5 23.5q-19 15 -29 18t-46 3h-275q-36 0 -46.5 -3t-29.5 -18 q-18 -15 -21 -23t-3 -40v-570q0 -32 3 -40t21 -23q19 -15 29.5 -18t46.5 -3h275q36 0 46 3t29 18q18 15 21.5 23.5t3.5 39.5v39h172v-82q0 -29 -8 -49.5t-16.5 -30t-24.5 -22.5l-49 -41q-17 -14 -26.5 -20.5t-29.5 -13.5t-43 -7h-182v-121q5 4 16 12t14.5 10.5t11 7t11 5.5 t9.5 2.5t12 1.5h65q26 0 50 -20l24 -21q25 -21 25 -51v-184q0 -31 -25 -52l-24 -20q-25 -21 -50 -21h-227q-24 0 -49 21l-25 20q-24 20 -24 52v65h100v-18q0 -16 1.5 -21t10.5 -12t14.5 -8.5t24.5 -1.5h119q29 0 41 10q9 7 10.5 12t1.5 21v90q0 16 -1.5 21t-10.5 12 t-14.5 8.5t-24.5 1.5h-43q-12 0 -22 -6l-21 -15h-100v199h-144q-23 0 -43 7t-28.5 13.5t-26.5 20.5l-49 41q-16 13 -24.5 22.5t-16.5 30t-8 49.5z" />
<glyph unicode="&#xe8;" horiz-adv-x="1118" d="M123 184v656q0 29 8 49.5t16.5 30t24.5 22.5l49 41q18 14 26.5 20.5t28.5 13.5t43 7h478q39 0 98 -41l51 -41q25 -18 37 -39.5t12 -62.5v-420h-700v-193q0 -32 3 -40t21 -23q19 -15 29.5 -18t46.5 -3h398q37 0 50.5 5.5t49.5 35.5l123 -102l-49 -41q-36 -30 -49.5 -35.5 t-51.5 -5.5h-547q-23 0 -43 7t-28.5 13.5t-26.5 20.5l-49 41q-16 13 -24.5 22.5t-16.5 30t-8 49.5zM295 553h528v244q0 32 -3 40t-21 23q-19 15 -29.5 18t-46.5 3h-328q-36 0 -46.5 -3t-29.5 -18q-18 -15 -21 -23t-3 -40v-244zM334 1323l88 129l280 -244l-53 -82z" />
<glyph unicode="&#xe9;" horiz-adv-x="1118" d="M123 184v656q0 29 8 49.5t16.5 30t24.5 22.5l49 41q18 14 26.5 20.5t28.5 13.5t43 7h478q39 0 98 -41l51 -41q25 -18 37 -39.5t12 -62.5v-420h-700v-193q0 -32 3 -40t21 -23q19 -15 29.5 -18t46.5 -3h398q37 0 50.5 5.5t49.5 35.5l123 -102l-49 -41q-36 -30 -49.5 -35.5 t-51.5 -5.5h-547q-23 0 -43 7t-28.5 13.5t-26.5 20.5l-49 41q-16 13 -24.5 22.5t-16.5 30t-8 49.5zM295 553h528v244q0 32 -3 40t-21 23q-19 15 -29.5 18t-46.5 3h-328q-36 0 -46.5 -3t-29.5 -18q-18 -15 -21 -23t-3 -40v-244zM436 1208l281 244l88 -129l-316 -197z" />
<glyph unicode="&#xea;" horiz-adv-x="1118" d="M123 184v656q0 29 8 49.5t16.5 30t24.5 22.5l49 41q18 14 26.5 20.5t28.5 13.5t43 7h478q39 0 98 -41l51 -41q25 -18 37 -39.5t12 -62.5v-420h-700v-193q0 -32 3 -40t21 -23q19 -15 29.5 -18t46.5 -3h398q37 0 50.5 5.5t49.5 35.5l123 -102l-49 -41q-36 -30 -49.5 -35.5 t-51.5 -5.5h-547q-23 0 -43 7t-28.5 13.5t-26.5 20.5l-49 41q-16 13 -24.5 22.5t-16.5 30t-8 49.5zM295 553h528v244q0 32 -3 40t-21 23q-19 15 -29.5 18t-46.5 3h-328q-36 0 -46.5 -3t-29.5 -18q-18 -15 -21 -23t-3 -40v-244zM303 1200l199 234h108l203 -234l-123 -39 l-119 144q-10 13 -10 24h-8q0 -11 -10 -24l-119 -144z" />
<glyph unicode="&#xeb;" horiz-adv-x="1118" d="M123 184v656q0 29 8 49.5t16.5 30t24.5 22.5l49 41q18 14 26.5 20.5t28.5 13.5t43 7h478q39 0 98 -41l51 -41q25 -18 37 -39.5t12 -62.5v-420h-700v-193q0 -32 3 -40t21 -23q19 -15 29.5 -18t46.5 -3h398q37 0 50.5 5.5t49.5 35.5l123 -102l-49 -41q-36 -30 -49.5 -35.5 t-51.5 -5.5h-547q-23 0 -43 7t-28.5 13.5t-26.5 20.5l-49 41q-16 13 -24.5 22.5t-16.5 30t-8 49.5zM295 553h528v244q0 32 -3 40t-21 23q-19 15 -29.5 18t-46.5 3h-328q-36 0 -46.5 -3t-29.5 -18q-18 -15 -21 -23t-3 -40v-244zM297 1286v17q0 33 3 42t17 25q12 14 22.5 16.5 t51.5 2.5q46 0 59.5 -3t26.5 -16q12 -11 14.5 -20t2.5 -47v-17q0 -38 -2.5 -47t-16.5 -20q-13 -13 -25 -16t-49 -3h-10q-37 0 -48.5 3t-25.5 16q-14 12 -17 22.5t-3 44.5zM625 1286v17q0 33 3 42t17 25q12 14 22.5 16.5t51.5 2.5q46 0 59.5 -3t26.5 -16q12 -10 14 -19t2 -48 v-17q0 -39 -2.5 -48t-15.5 -19q-13 -13 -25 -16t-49 -3h-10q-37 0 -48.5 3t-25.5 16q-14 12 -17 22.5t-3 44.5z" />
<glyph unicode="&#xec;" d="M-57 1323l88 129l280 -244l-53 -82zM123 0v1024h172v-1024h-172z" />
<glyph unicode="&#xed;" d="M106 1208l281 244l88 -129l-315 -197zM123 0v1024h172v-1024h-172z" />
<glyph unicode="&#xee;" d="M-45 1200l199 234h108l203 -234l-123 -39l-119 144q-10 13 -10 24h-8q0 -11 -10 -24l-119 -144zM123 0v1024h172v-1024h-172z" />
<glyph unicode="&#xef;" d="M-53 1286v17q0 33 3 42t17 25q12 14 22.5 16.5t51.5 2.5q46 0 59.5 -3t26.5 -16q12 -10 14 -19t2 -48v-17q0 -39 -2.5 -48t-15.5 -19q-13 -13 -25 -16t-49 -3h-10q-37 0 -48.5 3t-25.5 16q-14 12 -17 22.5t-3 44.5zM123 0v1024h172v-1024h-172zM274 1286v17 q0 32 3.5 41.5t17.5 25.5q12 14 22.5 16.5t51.5 2.5q46 0 59.5 -3t26.5 -16q12 -10 14 -19t2 -48v-17q0 -39 -2.5 -48t-15.5 -19q-13 -13 -25 -16t-49 -3h-10q-37 0 -48.5 3t-25.5 16q-14 12 -17.5 23t-3.5 44z" />
<glyph unicode="&#xf0;" horiz-adv-x="1130" d="M121 164v696q0 28 12.5 45.5t36.5 36.5l49 41q18 14 26.5 20.5t28.5 13.5t43 7h385q14 0 28.5 -5.5t32 -18.5t28.5 -22.5t31.5 -29.5t27.5 -26h8v59q0 32 -7.5 48t-37.5 40l-205 170l-110 -121l-99 90l107 115l-150 125l101 108l147 -126l129 141l98 -90l-124 -138 l256 -215q43 -43 43 -84v-880q0 -19 -8 -35.5t-17 -25t-25 -21.5l-49 -41q-18 -14 -26.5 -20.5t-28.5 -13.5t-43 -7h-492q-23 0 -43 7t-28.5 13.5t-26.5 20.5l-49 41q-24 19 -36.5 36.5t-12.5 45.5zM293 227q0 -32 3 -40t21 -23q19 -15 29.5 -18t46.5 -3h340q36 0 46.5 3 t29.5 18q18 15 21.5 23.5t3.5 39.5v549q0 31 -6.5 41t-43.5 33q-36 23 -49.5 27t-52.5 4h-289q-36 0 -46.5 -3t-29.5 -18q-18 -15 -21 -23t-3 -40v-570z" />
<glyph unicode="&#xf1;" horiz-adv-x="1150" d="M123 924v100h72q36 0 50 -5t38 -26q32 -25 32 -51h9q0 26 45 51q36 23 49.5 27t50.5 4h362q23 0 43 -7t29.5 -13.5t26.5 -20.5l49 -41q16 -13 24.5 -22.5t16.5 -30t8 -49.5v-840h-172v797q0 31 -3.5 39.5t-21.5 23.5q-19 15 -29 18t-46 3h-262q-38 0 -51.5 -4t-49.5 -27 t-42.5 -33t-6.5 -41v-776h-172v797q0 31 -3.5 39.5t-21.5 23.5q-18 14 -21 23t-3 41zM262 1253l162 80q22 13 49 13q29 0 107.5 -35t97.5 -35q12 0 27 6l126 66l56 -105l-162 -82q-20 -12 -49 -12q-35 0 -108 36t-95 36q-13 0 -21 -3t-38 -18l-97 -51z" />
<glyph unicode="&#xf2;" horiz-adv-x="1134" d="M125 184v656q0 29 8 49.5t16.5 30t24.5 22.5l49 41q17 14 26.5 20.5t29.5 13.5t43 7h491q23 0 43 -7t28.5 -13.5t26.5 -20.5l50 -41q16 -13 24.5 -22.5t16.5 -30t8 -49.5v-656q0 -29 -8 -49.5t-16.5 -30t-24.5 -22.5l-50 -41q-18 -14 -26.5 -20.5t-28.5 -13.5t-43 -7 h-491q-23 0 -43 7t-29.5 13.5t-26.5 20.5l-49 41q-16 13 -24.5 22.5t-16.5 30t-8 49.5zM297 227q0 -31 3.5 -39.5t21.5 -23.5q19 -15 29 -18t46 -3h340q36 0 46.5 3t29.5 18q18 15 21.5 23.5t3.5 39.5v570q0 31 -3.5 39.5t-21.5 23.5q-19 15 -29.5 18t-46.5 3h-340 q-36 0 -46 -3t-29 -18q-18 -15 -21.5 -23.5t-3.5 -39.5v-570zM322 1323l88 129l280 -244l-53 -82z" />
<glyph unicode="&#xf3;" horiz-adv-x="1134" d="M125 184v656q0 29 8 49.5t16.5 30t24.5 22.5l49 41q17 14 26.5 20.5t29.5 13.5t43 7h491q23 0 43 -7t28.5 -13.5t26.5 -20.5l50 -41q16 -13 24.5 -22.5t16.5 -30t8 -49.5v-656q0 -29 -8 -49.5t-16.5 -30t-24.5 -22.5l-50 -41q-18 -14 -26.5 -20.5t-28.5 -13.5t-43 -7 h-491q-23 0 -43 7t-29.5 13.5t-26.5 20.5l-49 41q-16 13 -24.5 22.5t-16.5 30t-8 49.5zM297 227q0 -31 3.5 -39.5t21.5 -23.5q19 -15 29 -18t46 -3h340q36 0 46.5 3t29.5 18q18 15 21.5 23.5t3.5 39.5v570q0 31 -3.5 39.5t-21.5 23.5q-19 15 -29.5 18t-46.5 3h-340 q-36 0 -46 -3t-29 -18q-18 -15 -21.5 -23.5t-3.5 -39.5v-570zM444 1208l281 244l88 -129l-315 -197z" />
<glyph unicode="&#xf4;" horiz-adv-x="1134" d="M125 184q0 -29 8 -49.5t16.5 -30t24.5 -22.5l49 -41q17 -14 26.5 -20.5t29.5 -13.5t43 -7h491q23 0 43 7t28.5 13.5t26.5 20.5l50 41q16 13 24.5 22.5t16.5 30t8 49.5v656q0 29 -8 49.5t-16.5 30t-24.5 22.5l-50 41q-18 14 -26.5 20.5t-28.5 13.5t-43 7h-491 q-23 0 -43 -7t-29.5 -13.5t-26.5 -20.5l-49 -41q-16 -13 -24.5 -22.5t-16.5 -30t-8 -49.5v-656zM297 227v570q0 31 3.5 39.5t21.5 23.5q19 15 29 18t46 3h340q36 0 46.5 -3t29.5 -18q18 -15 21.5 -23.5t3.5 -39.5v-570q0 -31 -3.5 -39.5t-21.5 -23.5q-19 -15 -29.5 -18 t-46.5 -3h-340q-36 0 -46 3t-29 18q-18 15 -21.5 23.5t-3.5 39.5zM311 1200l199 234h108l203 -234l-123 -39l-118 144q-11 14 -11 24h-8q0 -11 -10 -24l-119 -144z" />
<glyph unicode="&#xf5;" horiz-adv-x="1134" d="M125 184q0 -29 8 -49.5t16.5 -30t24.5 -22.5l49 -41q17 -14 26.5 -20.5t29.5 -13.5t43 -7h491q23 0 43 7t28.5 13.5t26.5 20.5l50 41q16 13 24.5 22.5t16.5 30t8 49.5v656q0 29 -8 49.5t-16.5 30t-24.5 22.5l-50 41q-18 14 -26.5 20.5t-28.5 13.5t-43 7h-491 q-23 0 -43 -7t-29.5 -13.5t-26.5 -20.5l-49 -41q-16 -13 -24.5 -22.5t-16.5 -30t-8 -49.5v-656zM254 1253l162 80q22 13 49 13q29 0 107.5 -35t97.5 -35q11 0 26 6l127 66l56 -105l-162 -82q-20 -12 -49 -12q-35 0 -108 36t-95 36q-13 0 -21 -3t-38 -18l-97 -51zM297 227 v570q0 31 3.5 39.5t21.5 23.5q19 15 29 18t46 3h340q36 0 46.5 -3t29.5 -18q18 -15 21.5 -23.5t3.5 -39.5v-570q0 -31 -3.5 -39.5t-21.5 -23.5q-19 -15 -29.5 -18t-46.5 -3h-340q-36 0 -46 3t-29 18q-18 15 -21.5 23.5t-3.5 39.5z" />
<glyph unicode="&#xf6;" horiz-adv-x="1134" d="M125 184v656q0 29 8 49.5t16.5 30t24.5 22.5l49 41q17 14 26.5 20.5t29.5 13.5t43 7h491q23 0 43 -7t28.5 -13.5t26.5 -20.5l50 -41q16 -13 24.5 -22.5t16.5 -30t8 -49.5v-656q0 -29 -8 -49.5t-16.5 -30t-24.5 -22.5l-50 -41q-18 -14 -26.5 -20.5t-28.5 -13.5t-43 -7 h-491q-23 0 -43 7t-29.5 13.5t-26.5 20.5l-49 41q-16 13 -24.5 22.5t-16.5 30t-8 49.5zM297 227q0 -31 3.5 -39.5t21.5 -23.5q19 -15 29 -18t46 -3h340q36 0 46.5 3t29.5 18q18 15 21.5 23.5t3.5 39.5v570q0 31 -3.5 39.5t-21.5 23.5q-19 15 -29.5 18t-46.5 3h-340 q-36 0 -46 -3t-29 -18q-18 -15 -21.5 -23.5t-3.5 -39.5v-570zM305 1286v17q0 32 3.5 41.5t17.5 25.5q12 14 22 16.5t51 2.5q46 0 59.5 -3t26.5 -16q12 -11 14.5 -20t2.5 -47v-17q0 -38 -2.5 -47t-16.5 -20q-13 -13 -24.5 -16t-48.5 -3h-11q-37 0 -48 3t-25 16 q-14 12 -17.5 23t-3.5 44zM633 1286v17q0 33 3 42t17 25q12 14 22.5 16.5t51.5 2.5q46 0 59.5 -3t26.5 -16q12 -10 14 -19t2 -48v-17q0 -39 -2.5 -48t-15.5 -19q-13 -13 -25 -16t-49 -3h-10q-37 0 -48.5 3t-25.5 16q-14 12 -17 22.5t-3 44.5z" />
<glyph unicode="&#xf7;" horiz-adv-x="1101" d="M123 602v133h856v-133h-856zM465 301v90q0 17 2.5 22.5t13.5 16.5q10 10 21.5 12t48.5 2t49 -2t23 -12q14 -14 14 -37v-82q0 -24 -2 -30.5t-14 -16.5q-10 -10 -21.5 -12t-48.5 -2t-49 2t-23 12q-14 14 -14 37zM465 936v90q0 17 2.5 22.5t13.5 16.5q10 10 21.5 12t48.5 2 t49 -2t23 -12q14 -14 14 -37v-82q0 -24 -2 -30.5t-14 -16.5q-10 -10 -21.5 -12t-48.5 -2t-49 2t-23 12q-14 14 -14 37z" />
<glyph unicode="&#xf8;" horiz-adv-x="1134" d="M74 -102l119 168l-19 16q-16 13 -24.5 22.5t-16.5 30t-8 49.5v656q0 29 8 49.5t16.5 30t24.5 22.5l49 41q17 14 26.5 20.5t29.5 13.5t43 7h491q27 0 45 -6l76 108h133l-121 -172l15 -12q16 -13 24.5 -22.5t16.5 -30t8 -49.5v-656q0 -29 -8 -49.5t-16.5 -30t-24.5 -22.5 l-50 -41q-18 -14 -26.5 -20.5t-28.5 -13.5t-43 -7h-491q-28 0 -46 6l-75 -108h-127zM297 215l465 666h-365q-36 0 -46 -3t-29 -18q-18 -15 -21.5 -23.5t-3.5 -39.5v-582zM373 143h364q36 0 46.5 3t29.5 18q18 15 21.5 23.5t3.5 39.5v570z" />
<glyph unicode="&#xf9;" horiz-adv-x="1110" d="M123 184v840h172v-797q0 -32 3 -40t21 -23q19 -15 29.5 -18t46.5 -3h221q38 0 51.5 4t49.5 27t42.5 33t6.5 41v776h172v-797q0 -31 3.5 -39.5t21.5 -23.5q18 -14 21 -23t3 -41v-100h-72q-36 0 -50 5t-38 26q-32 25 -32 51h-9q0 -26 -45 -51q-36 -23 -49.5 -27t-50.5 -4 h-322q-23 0 -43 7t-28.5 13.5t-26.5 20.5l-49 41q-16 13 -24.5 22.5t-16.5 30t-8 49.5zM309 1323l88 129l281 -244l-53 -82z" />
<glyph unicode="&#xfa;" horiz-adv-x="1110" d="M123 184v840h172v-797q0 -32 3 -40t21 -23q19 -15 29.5 -18t46.5 -3h221q38 0 51.5 4t49.5 27t42.5 33t6.5 41v776h172v-797q0 -31 3.5 -39.5t21.5 -23.5q18 -14 21 -23t3 -41v-100h-72q-36 0 -50 5t-38 26q-32 25 -32 51h-9q0 -26 -45 -51q-36 -23 -49.5 -27t-50.5 -4 h-322q-23 0 -43 7t-28.5 13.5t-26.5 20.5l-49 41q-16 13 -24.5 22.5t-16.5 30t-8 49.5zM412 1208l280 244l88 -129l-315 -197z" />
<glyph unicode="&#xfb;" horiz-adv-x="1110" d="M123 184q0 -29 8 -49.5t16.5 -30t24.5 -22.5l49 -41q18 -14 26.5 -20.5t28.5 -13.5t43 -7h322q37 0 50.5 4t49.5 27q45 25 45 51h9q0 -26 32 -51q24 -21 38 -26t50 -5h72v100q0 32 -3 41t-21 23q-18 15 -21.5 23.5t-3.5 39.5v797h-172v-776q0 -31 -6.5 -41t-42.5 -33 t-49.5 -27t-51.5 -4h-221q-36 0 -46.5 3t-29.5 18q-18 15 -21 23t-3 40v797h-172v-840zM299 1200l199 234h108l203 -234l-123 -39l-119 144q-10 13 -10 24h-8q0 -11 -10 -24l-119 -144z" />
<glyph unicode="&#xfc;" horiz-adv-x="1110" d="M123 184v840h172v-797q0 -32 3 -40t21 -23q19 -15 29.5 -18t46.5 -3h221q38 0 51.5 4t49.5 27t42.5 33t6.5 41v776h172v-797q0 -31 3.5 -39.5t21.5 -23.5q18 -14 21 -23t3 -41v-100h-72q-36 0 -50 5t-38 26q-32 25 -32 51h-9q0 -26 -45 -51q-36 -23 -49.5 -27t-50.5 -4 h-322q-23 0 -43 7t-28.5 13.5t-26.5 20.5l-49 41q-16 13 -24.5 22.5t-16.5 30t-8 49.5zM293 1286v17q0 33 3 42t17 25q12 14 22.5 16.5t51.5 2.5q46 0 59.5 -3t26.5 -16q12 -10 14 -19t2 -48v-17q0 -39 -2.5 -48t-15.5 -19q-13 -13 -25 -16t-49 -3h-10q-37 0 -48.5 3 t-25.5 16q-14 12 -17 22.5t-3 44.5zM621 1286v17q0 33 3 42t17 25q12 14 22.5 16.5t51.5 2.5q46 0 59.5 -3t26.5 -16q12 -10 14 -19t2 -48v-17q0 -39 -2.5 -48t-15.5 -19q-13 -13 -25 -16t-49 -3h-10q-37 0 -48.5 3t-25.5 16q-14 12 -17 22.5t-3 44.5z" />
<glyph unicode="&#xfd;" horiz-adv-x="1101" d="M123 184v840h172v-797q0 -32 3 -40t21 -23q19 -15 29.5 -18t46.5 -3h262q37 0 51 4t50 27t42.5 33t6.5 41v776h172v-1372q0 -41 -12.5 -62.5t-36.5 -40.5l-49 -41q-17 -13 -27 -20t-29.5 -13.5t-42.5 -6.5h-589v53q0 47 4.5 58.5t31.5 31.5h502q37 0 47 2.5t29 17.5 q18 14 21 23t3 41v403h-8q-4 -19 -49 -57q-18 -14 -26.5 -20.5t-28.5 -13.5t-43 -7h-357q-23 0 -43 7t-28.5 13.5t-26.5 20.5l-49 41q-16 13 -24.5 22.5t-16.5 30t-8 49.5zM408 1208l280 244l88 -129l-315 -197z" />
<glyph unicode="&#xfe;" horiz-adv-x="1179" d="M172 -532v2048h172v-539q1 2 25 16q36 23 49.5 27t50.5 4h391q23 0 43 -7t28.5 -13.5t26.5 -20.5l50 -41q16 -13 24.5 -22.5t16.5 -30t8 -49.5v-656q0 -29 -8 -49.5t-16.5 -30t-24.5 -22.5l-50 -41q-18 -14 -26.5 -20.5t-28.5 -13.5t-43 -7h-360q-52 0 -99 41 q-4 4 -12.5 12t-13.5 13t-11 12t-9 13t-3 11h-8v-634h-172zM344 266q0 -28 12.5 -45.5t36.5 -36.5q17 -14 26.5 -20.5t29.5 -13.5t43 -7h292q36 0 46.5 3t29.5 18q18 15 21.5 23.5t3.5 39.5v570q0 31 -3.5 39.5t-21.5 23.5q-19 15 -29.5 18t-46.5 3h-290q-38 0 -51.5 -4 t-49.5 -27t-42.5 -33t-6.5 -41v-510z" />
<glyph unicode="&#xff;" horiz-adv-x="1101" d="M123 184v840h172v-797q0 -32 3 -40t21 -23q19 -15 29.5 -18t46.5 -3h262q37 0 51 4t50 27t42.5 33t6.5 41v776h172v-1372q0 -41 -12.5 -62.5t-36.5 -40.5l-49 -41q-17 -13 -27 -20t-29.5 -13.5t-42.5 -6.5h-589v53q0 47 4.5 58.5t31.5 31.5h502q37 0 47 2.5t29 17.5 q18 14 21 23t3 41v403h-8q-4 -19 -49 -57q-18 -14 -26.5 -20.5t-28.5 -13.5t-43 -7h-357q-23 0 -43 7t-28.5 13.5t-26.5 20.5l-49 41q-16 13 -24.5 22.5t-16.5 30t-8 49.5zM289 1286v17q0 33 3 42t17 25q12 14 22.5 16.5t51.5 2.5q46 0 59.5 -3t26.5 -16q12 -10 14 -19 t2 -48v-17q0 -39 -2.5 -48t-15.5 -19q-13 -13 -25 -16t-49 -3h-10q-37 0 -48.5 3t-25.5 16q-14 12 -17 22.5t-3 44.5zM616 1286v17q0 32 3.5 41.5t17.5 25.5q12 14 22.5 16.5t51.5 2.5q46 0 59.5 -3t26.5 -16q12 -10 14 -19t2 -48v-17q0 -39 -2.5 -48t-15.5 -19 q-13 -13 -25 -16t-49 -3h-10q-37 0 -48.5 3t-25.5 16q-14 12 -17.5 23t-3.5 44z" />
<glyph unicode="&#x152;" horiz-adv-x="2099" d="M205 184v1065q0 41 12.5 62.5t36.5 40.5l49 41q18 14 26.5 20.5t28.5 13.5t43 7h1545v-144h-680v-491h567v-144h-567v-512h680v-143h-1545q-23 0 -43 7t-28.5 13.5t-26.5 20.5l-49 41q-16 13 -24.5 22.5t-16.5 30t-8 49.5zM377 227q0 -32 3 -40t21 -23q19 -15 29.5 -18 t46.5 -3h617v1147h-617q-37 0 -47 -2.5t-29 -17.5q-18 -14 -21 -23t-3 -41v-979z" />
<glyph unicode="&#x153;" horiz-adv-x="1832" d="M125 184v656q0 29 8 49.5t16.5 30t24.5 22.5l49 41q17 14 26.5 20.5t29.5 13.5t43 7h491q62 0 98 -45l9 -10h8l8 10q36 45 98 45h477q40 0 99 -41l51 -41q25 -18 37 -39.5t12 -62.5v-420h-700v-193q0 -32 3 -40t21 -23q19 -15 29.5 -18t46.5 -3h397q37 0 51 5.5t50 35.5 l123 -102l-50 -41q-36 -30 -49.5 -35.5t-50.5 -5.5h-547q-62 0 -98 45l-8 10h-8l-9 -10q-36 -45 -98 -45h-491q-23 0 -43 7t-29.5 13.5t-26.5 20.5l-49 41q-16 13 -24.5 22.5t-16.5 30t-8 49.5zM297 227q0 -31 3.5 -39.5t21.5 -23.5q19 -15 29 -18t46 -3h340q36 0 46.5 3 t29.5 18q18 15 21.5 23.5t3.5 39.5v594q-2 19 -25 39q-19 15 -29.5 18t-46.5 3h-340q-36 0 -46 -3t-29 -18q-18 -15 -21.5 -23.5t-3.5 -39.5v-570zM1010 553h528v244q0 31 -3.5 39.5t-21.5 23.5q-19 15 -29 18t-46 3h-328q-36 0 -46.5 -3t-29.5 -18q-18 -15 -21 -23t-3 -40 v-244z" />
<glyph unicode="&#x2c6;" horiz-adv-x="817" d="M154 1200l198 234h109l203 -234l-123 -39l-119 144q-10 13 -10 24h-9q0 -11 -10 -24l-119 -144z" />
<glyph unicode="&#x2dc;" horiz-adv-x="927" d="M150 1253l161 80q22 13 49 13q29 0 107.5 -35t97.5 -35q12 0 27 6l127 66l55 -105l-162 -82q-20 -12 -49 -12q-35 0 -108 36t-95 36q-13 0 -21 -3t-38 -18l-96 -51z" />
<glyph unicode="&#x2000;" horiz-adv-x="933" />
<glyph unicode="&#x2001;" horiz-adv-x="1866" />
<glyph unicode="&#x2002;" horiz-adv-x="933" />
<glyph unicode="&#x2003;" horiz-adv-x="1866" />
<glyph unicode="&#x2004;" horiz-adv-x="622" />
<glyph unicode="&#x2005;" horiz-adv-x="466" />
<glyph unicode="&#x2006;" horiz-adv-x="311" />
<glyph unicode="&#x2007;" horiz-adv-x="311" />
<glyph unicode="&#x2008;" horiz-adv-x="233" />
<glyph unicode="&#x2009;" horiz-adv-x="373" />
<glyph unicode="&#x200a;" horiz-adv-x="103" />
<glyph unicode="&#x2010;" horiz-adv-x="1028" d="M123 602v133h782v-133h-782z" />
<glyph unicode="&#x2011;" horiz-adv-x="1028" d="M123 602v133h782v-133h-782z" />
<glyph unicode="&#x2012;" horiz-adv-x="1028" d="M123 602v133h782v-133h-782z" />
<glyph unicode="&#x2013;" horiz-adv-x="1249" d="M92 602v133h1065v-133h-1065z" />
<glyph unicode="&#x2014;" horiz-adv-x="1327" d="M0 602v133h1327v-133h-1327z" />
<glyph unicode="&#x2018;" d="M123 1104v35q0 49 12 100l49 225l62 -41v-204q16 0 33 -17q12 -10 14 -18.5t2 -44.5v-35q0 -36 -2 -45t-14 -21q-12 -10 -21 -12t-47 -2q-41 0 -50.5 2t-21.5 12q-12 12 -14 21t-2 45z" />
<glyph unicode="&#x2019;" d="M123 1348v34q0 36 2 45t14 21q12 10 21 12t47 2q41 0 50.5 -2t21.5 -12q12 -12 14 -21t2 -45v-34q0 -50 -12 -101l-50 -225l-61 41v205q-11 0 -16.5 2.5t-16.5 13.5q-12 10 -14 19t-2 45z" />
<glyph unicode="&#x201a;" d="M123 80v35q0 36 2 44.5t14 20.5q12 11 22 13t46 2q39 0 49.5 -2t22.5 -13q12 -12 14 -20.5t2 -44.5v-35q0 -49 -12 -100l-50 -226l-61 41v205q-11 0 -16.5 2.5t-16.5 13.5q-12 10 -14 19t-2 45z" />
<glyph unicode="&#x201c;" horiz-adv-x="718" d="M123 1104v35q0 49 12 100l49 225l62 -41v-204q16 0 33 -17q12 -10 14 -18.5t2 -44.5v-35q0 -36 -2 -45t-14 -21q-12 -10 -21 -12t-47 -2q-41 0 -50.5 2t-21.5 12q-12 12 -14 21t-2 45zM424 1104v35q0 49 12 100l49 225l62 -41v-204q16 0 33 -17q12 -10 14 -18.5t2 -44.5 v-35q0 -36 -2 -45t-14 -21q-12 -10 -21 -12t-47 -2q-40 0 -50 2t-22 12q-12 12 -14 21t-2 45z" />
<glyph unicode="&#x201d;" horiz-adv-x="718" d="M123 1348v34q0 36 2 45t14 21q12 10 21 12t47 2q41 0 50.5 -2t21.5 -12q12 -12 14 -21t2 -45v-34q0 -50 -12 -101l-50 -225l-61 41v205q-11 0 -16.5 2.5t-16.5 13.5q-12 10 -14 19t-2 45zM424 1348v34q0 36 2 45t14 21q12 10 21 12t47 2q40 0 50 -2t22 -12q12 -12 14 -21 t2 -45v-34q0 -50 -12 -101l-49 -225l-62 41v205q-11 0 -16.5 2.5t-16.5 13.5q-12 10 -14 19t-2 45z" />
<glyph unicode="&#x201e;" horiz-adv-x="718" d="M123 80v35q0 36 2 44.5t14 20.5q12 11 22 13t46 2q39 0 49.5 -2t22.5 -13q12 -12 14 -20.5t2 -44.5v-35q0 -49 -12 -100l-50 -226l-61 41v205q-11 0 -16.5 2.5t-16.5 13.5q-12 10 -14 19t-2 45zM424 80v35q0 36 2 44.5t14 20.5q12 11 22 13t46 2q39 0 49.5 -2t22.5 -13 q12 -12 14 -20.5t2 -44.5v-35q0 -49 -12 -100l-49 -226l-62 41v205q-11 0 -16.5 2.5t-16.5 13.5q-12 10 -14 19t-2 45z" />
<glyph unicode="&#x2022;" horiz-adv-x="716" d="M154 678v106q0 65 5 81t34 44q23 23 41 27t96 4h63q75 0 93 -4t46 -27q25 -28 29 -44t4 -81v-106q0 -65 -5 -81t-34 -44q-23 -23 -40 -27t-91 -4h-65q-79 0 -97 4t-43 27q-27 27 -31.5 43t-4.5 82z" />
<glyph unicode="&#x202f;" horiz-adv-x="373" />
<glyph unicode="&#x2039;" horiz-adv-x="714" d="M133 559l340 549l109 -82l-295 -467l295 -467l-109 -82z" />
<glyph unicode="&#x203a;" horiz-adv-x="714" d="M133 92l295 467l-295 467l109 82l340 -549l-340 -549z" />
<glyph unicode="&#x205f;" horiz-adv-x="466" />
<glyph unicode="&#x20ac;" horiz-adv-x="1417" d="M41 522v133h205v125h-205v133h205v336q0 41 12.5 62.5t36.5 40.5l49 41q18 14 26.5 20.5t28.5 13.5t43 7h656q23 0 43 -7t28.5 -13.5t26.5 -20.5l49 -41q16 -13 24.5 -22.5t16.5 -30.5t8 -50v-82h-172v39q0 32 -3 41t-21 23q-19 15 -29 17.5t-47 2.5h-504q-37 0 -47 -2.5 t-29 -17.5q-18 -14 -21 -23t-3 -41v-293h524v-133h-524v-125h463v-133h-463v-295q0 -32 3 -40t21 -23q19 -15 29.5 -18t46.5 -3h504q36 0 46.5 3t29.5 18q18 15 21 23t3 40v39h172v-82q0 -29 -8 -49.5t-16.5 -30t-24.5 -22.5l-49 -41q-18 -14 -26.5 -20.5t-28.5 -13.5 t-43 -7h-656q-23 0 -43 7t-28.5 13.5t-26.5 20.5l-49 41q-16 13 -24.5 22.5t-16.5 30t-8 49.5v338h-205z" />
<glyph unicode="&#x25fc;" horiz-adv-x="1024" d="M0 0v1024h1024v-1024h-1024z" />
</font>
</defs>
</svg>
